<svg width="225" height="60" viewBox="0 0 225 60" fill="none" xmlns="http://www.w3.org/2000/svg">
<path fill-rule="evenodd" clip-rule="evenodd" d="M14.4803 10.0946C13.5111 10.3933 12.7795 11.0807 12.355 12.0918C12.1421 12.5989 12.1189 12.7839 12.112 14.0322L12.1043 15.4119L13.9285 15.4629L15.7527 15.5138L16.3751 15.8481C16.7689 16.0596 17.1507 16.3682 17.4149 16.6886C17.6445 16.967 17.8599 17.1948 17.8934 17.1948C18.0457 17.1948 18.3382 16.1913 18.3857 15.5053L18.4381 14.7497H19.956C21.2918 14.7497 21.4992 14.7272 21.6866 14.5618C21.9446 14.334 21.973 13.8015 21.7406 13.5477C21.6061 13.4009 21.3395 13.3694 20.0036 13.3422L18.4255 13.3101L18.3619 12.8838C18.2712 12.2762 17.8998 11.5075 17.4582 11.0135C16.7376 10.2072 15.4271 9.80285 14.4803 10.0946ZM5.97837 17.1693C5.6492 17.3513 5.37469 17.6019 5.19502 17.8846C4.63319 18.7684 4.80717 20.1891 5.55324 20.8096L5.85055 21.0569L6.44779 20.7466C7.45828 20.2219 8.10167 20.1299 10.4692 20.1716C12.8111 20.213 13.13 20.2875 14.1093 21.0219C14.6741 21.4456 15.2331 21.4893 15.859 21.1589C17.354 20.3699 17.3779 18.016 15.8996 17.1738L15.3999 16.8892H10.9425H6.48507L5.97837 17.1693ZM26.9604 19.6598C26.8576 19.7234 26.7426 19.8251 26.7049 19.886C26.6671 19.9468 26.6356 20.6439 26.6348 21.4352L26.6334 22.874L27.0305 22.9429C27.2488 22.9808 27.5221 23.0374 27.6378 23.0688L27.848 23.1259V21.5431V19.9603L27.6018 19.7492C27.3227 19.5098 27.225 19.4962 26.9604 19.6598ZM17.2808 21.7418C16.8871 22.1883 16.3419 22.5414 15.8097 22.6945C15.4316 22.8032 15.4082 22.8298 15.4675 23.0848C15.6198 23.7409 15.6937 24.4995 15.6425 24.8815C15.6121 25.1085 15.3186 26.6084 14.9903 28.2146C14.6621 29.8208 14.3935 31.1632 14.3935 31.1977C14.3935 31.2322 14.9046 31.2476 15.5294 31.2319L16.6654 31.2032L17.1083 28.8132C17.4798 26.8089 17.5846 26.3939 17.7579 26.2408C17.8716 26.1404 18.0496 26.0583 18.1534 26.0583C18.2573 26.0583 18.7955 26.3596 19.3497 26.7279C19.9038 27.0961 20.5567 27.4628 20.8005 27.5429C21.144 27.6556 21.9044 27.6884 24.1752 27.6884C27.4175 27.6884 27.5002 27.6746 28.0005 27.0533C28.6835 26.2051 28.3882 24.917 27.4072 24.4649C27.1764 24.3586 26.4493 24.3259 24.2771 24.3241C21.706 24.3221 21.4137 24.3045 21.074 24.1305C20.8685 24.0252 20.0696 23.4048 19.2988 22.7517C18.5279 22.0988 17.8301 21.5233 17.7479 21.4728C17.6361 21.4043 17.5187 21.4717 17.2808 21.7418ZM7.71289 21.7151C6.70613 21.9959 5.75665 22.8056 5.34386 23.7355C5.23697 23.9764 4.82829 25.5948 4.43567 27.3318C3.64064 30.849 3.62494 31.0596 4.08828 31.9883C4.38242 32.5779 4.99292 33.1171 5.5639 33.2917C5.81159 33.3674 6.81975 33.3952 8.5538 33.3743C11.0612 33.344 11.1863 33.3331 11.5644 33.1129C12.173 32.7583 12.5885 32.3094 12.8435 31.7312C12.9716 31.4408 13.2908 30.1717 13.553 28.911C13.8152 27.6502 14.1116 26.2368 14.2116 25.7701C14.5624 24.1332 14.3759 23.1604 13.5568 22.3553C12.8509 21.6613 12.7306 21.6335 10.3291 21.6078C8.82672 21.5917 8.03944 21.624 7.71289 21.7151ZM27.4276 28.9616C27.3762 28.9806 27.1768 29.0249 26.9844 29.0599L26.6347 29.1237L26.6107 36.0215L26.5867 42.9194L24.39 42.9467L22.1934 42.9739L21.4602 41.8833C21.0569 41.2835 20.684 40.6897 20.6315 40.564C20.5536 40.3776 20.6851 39.854 21.3421 37.7367C22.2014 34.9669 22.2264 34.7779 21.7694 34.5112C21.6587 34.4466 20.5394 34.0083 19.282 33.5371L16.9959 32.6805H15.4708H13.9456L13.3052 33.3759C12.2174 34.5573 11.4531 34.82 9.10245 34.82H7.67654L7.33513 36.017C7.14733 36.6754 6.57626 38.6583 6.0662 40.4233C5.20184 43.4141 4.96891 44.2243 4.06708 47.3766L3.72454 48.5737H2.11074C0.619528 48.5737 0.478162 48.5898 0.250742 48.7849C0.00771911 48.9933 -0.075344 49.4063 0.0760199 49.6536C0.279053 49.9851 0.548424 50 6.33408 50C10.813 50 12.1507 49.9713 12.2723 49.8727C12.3587 49.8027 12.9774 48.5304 13.6471 47.0455L14.8648 44.3457L22.2764 44.2948C30.386 44.239 29.997 44.2722 29.997 43.6359C29.997 43.1017 29.7858 42.9826 28.7792 42.9489L27.8947 42.9194L27.8707 35.9152C27.8482 29.3295 27.837 28.9115 27.6839 28.919C27.5943 28.9234 27.479 28.9426 27.4276 28.9616ZM17.7303 37.0664C18.2573 37.2667 18.2618 37.4467 17.8009 39.8359C17.571 41.0275 17.337 42.2192 17.2809 42.4839L17.1789 42.9654L15.6227 42.9933L14.0664 43.0213L12.8051 45.7971L11.5437 48.573L10.3758 48.5719L9.20784 48.5708L8.57716 47.5828C8.18698 46.9715 7.94648 46.4923 7.94648 46.326C7.94648 46.0925 9.39761 42.7252 11.1028 39.0018C11.6716 37.7597 11.9911 37.3755 12.6768 37.109C13.1263 36.9343 17.2904 36.8992 17.7303 37.0664Z" fill="#008774"/>
<path d="M58.608 42.32C56.9867 42.32 55.4827 42.032 54.096 41.456C52.7307 40.8587 51.536 40.0373 50.512 38.992C49.488 37.9253 48.6987 36.6987 48.144 35.312C47.5893 33.904 47.312 32.4 47.312 30.8C47.312 29.2 47.5893 27.7067 48.144 26.32C48.6987 24.912 49.488 23.6853 50.512 22.64C51.536 21.5947 52.7307 20.7733 54.096 20.176C55.4827 19.5787 56.9867 19.28 58.608 19.28C60.4213 19.28 61.9893 19.5787 63.312 20.176C64.6347 20.7733 65.808 21.584 66.832 22.608L64.336 25.104C63.6747 24.3787 62.864 23.8133 61.904 23.408C60.9653 23.0027 59.8667 22.8 58.608 22.8C57.4987 22.8 56.4853 22.992 55.568 23.376C54.6507 23.76 53.8507 24.3147 53.168 25.04C52.5067 25.744 51.9947 26.5867 51.632 27.568C51.2693 28.5493 51.088 29.6267 51.088 30.8C51.088 31.9733 51.2693 33.0507 51.632 34.032C51.9947 35.0133 52.5067 35.8667 53.168 36.592C53.8507 37.296 54.6507 37.84 55.568 38.224C56.4853 38.608 57.4987 38.8 58.608 38.8C59.9733 38.8 61.1253 38.5973 62.064 38.192C63.024 37.7653 63.8347 37.1893 64.496 36.464L66.992 38.96C65.968 40.0053 64.7627 40.8267 63.376 41.424C61.9893 42.0213 60.4 42.32 58.608 42.32ZM75.759 42.32C74.3723 42.32 73.1137 41.968 71.983 41.264C70.8737 40.56 69.9883 39.6107 69.327 38.416C68.687 37.2 68.367 35.8453 68.367 34.352C68.367 32.8373 68.687 31.4827 69.327 30.288C69.9883 29.072 70.8737 28.112 71.983 27.408C73.1137 26.6827 74.3723 26.32 75.759 26.32C76.9323 26.32 77.967 26.576 78.863 27.088C79.7803 27.5787 80.5057 28.2613 81.039 29.136C81.5723 30.0107 81.839 31.0027 81.839 32.112V36.528C81.839 37.6373 81.5723 38.6293 81.039 39.504C80.527 40.3787 79.8123 41.072 78.895 41.584C77.9777 42.0747 76.9323 42.32 75.759 42.32ZM76.335 38.992C77.6363 38.992 78.6817 38.5547 79.471 37.68C80.2817 36.8053 80.687 35.6853 80.687 34.32C80.687 33.4027 80.5057 32.592 80.143 31.888C79.7803 31.184 79.2683 30.64 78.607 30.256C77.967 29.8507 77.2097 29.648 76.335 29.648C75.4817 29.648 74.7243 29.8507 74.063 30.256C73.423 30.64 72.911 31.184 72.527 31.888C72.1643 32.592 71.983 33.4027 71.983 34.32C71.983 35.2373 72.1643 36.048 72.527 36.752C72.911 37.456 73.423 38.0107 74.063 38.416C74.7243 38.8 75.4817 38.992 76.335 38.992ZM80.463 42V37.872L81.071 34.128L80.463 30.416V26.64H83.983V42H80.463ZM87.8895 42V26.64H91.4095V42H87.8895ZM98.0975 42V32.848C98.0975 31.824 97.7775 31.0347 97.1375 30.48C96.4975 29.904 95.7082 29.616 94.7695 29.616C94.1295 29.616 93.5535 29.744 93.0415 30C92.5508 30.256 92.1562 30.6293 91.8575 31.12C91.5588 31.5893 91.4095 32.1653 91.4095 32.848L90.0335 32.08C90.0335 30.9067 90.2895 29.8933 90.8015 29.04C91.3135 28.1867 92.0068 27.5253 92.8815 27.056C93.7562 26.5653 94.7375 26.32 95.8255 26.32C96.9135 26.32 97.8948 26.5547 98.7695 27.024C99.6442 27.4933 100.338 28.1547 100.85 29.008C101.362 29.8613 101.618 30.8853 101.618 32.08V42H98.0975ZM108.306 42V32.848C108.306 31.824 107.986 31.0347 107.346 30.48C106.706 29.904 105.916 29.616 104.978 29.616C104.359 29.616 103.794 29.744 103.282 30C102.77 30.256 102.364 30.6293 102.066 31.12C101.767 31.5893 101.618 32.1653 101.618 32.848L99.6335 32.08C99.7402 30.9067 100.082 29.8933 100.658 29.04C101.234 28.1867 101.97 27.5253 102.866 27.056C103.783 26.5653 104.786 26.32 105.874 26.32C106.983 26.32 107.986 26.5547 108.882 27.024C109.778 27.4933 110.492 28.1547 111.026 29.008C111.559 29.8613 111.826 30.8853 111.826 32.08V42H108.306ZM123.676 42.32C122.503 42.32 121.457 42.0747 120.54 41.584C119.623 41.072 118.897 40.3787 118.364 39.504C117.852 38.6293 117.596 37.6373 117.596 36.528V32.112C117.596 31.0027 117.863 30.0107 118.396 29.136C118.929 28.2613 119.655 27.5787 120.572 27.088C121.489 26.576 122.524 26.32 123.676 26.32C125.063 26.32 126.311 26.6827 127.42 27.408C128.551 28.112 129.436 29.072 130.076 30.288C130.737 31.4827 131.068 32.8373 131.068 34.352C131.068 35.8453 130.737 37.2 130.076 38.416C129.436 39.6107 128.551 40.56 127.42 41.264C126.311 41.968 125.063 42.32 123.676 42.32ZM123.1 38.992C123.953 38.992 124.7 38.8 125.34 38.416C126.001 38.0107 126.513 37.456 126.876 36.752C127.26 36.048 127.452 35.2373 127.452 34.32C127.452 33.4027 127.26 32.592 126.876 31.888C126.513 31.184 126.001 30.64 125.34 30.256C124.7 29.8507 123.953 29.648 123.1 29.648C122.247 29.648 121.489 29.8507 120.828 30.256C120.167 30.64 119.655 31.184 119.292 31.888C118.929 32.592 118.748 33.4027 118.748 34.32C118.748 35.2373 118.929 36.048 119.292 36.752C119.655 37.456 120.167 38.0107 120.828 38.416C121.489 38.8 122.247 38.992 123.1 38.992ZM115.452 48.4V26.64H118.972V30.768L118.364 34.512L118.972 38.224V48.4H115.452Z" fill="black"/>
<path d="M144.671 42.32C143.049 42.32 141.545 42.032 140.159 41.456C138.793 40.8587 137.599 40.0373 136.575 38.992C135.551 37.9253 134.761 36.6987 134.207 35.312C133.652 33.904 133.375 32.4 133.375 30.8C133.375 29.2 133.652 27.7067 134.207 26.32C134.761 24.912 135.551 23.6853 136.575 22.64C137.599 21.5947 138.793 20.7733 140.159 20.176C141.545 19.5787 143.049 19.28 144.671 19.28C146.484 19.28 148.052 19.5787 149.375 20.176C150.697 20.7733 151.871 21.584 152.895 22.608L150.399 25.104C149.737 24.3787 148.927 23.8133 147.967 23.408C147.028 23.0027 145.929 22.8 144.671 22.8C143.561 22.8 142.548 22.992 141.631 23.376C140.713 23.76 139.913 24.3147 139.231 25.04C138.569 25.744 138.057 26.5867 137.695 27.568C137.332 28.5493 137.151 29.6267 137.151 30.8C137.151 31.9733 137.332 33.0507 137.695 34.032C138.057 35.0133 138.569 35.8667 139.231 36.592C139.913 37.296 140.713 37.84 141.631 38.224C142.548 38.608 143.561 38.8 144.671 38.8C146.036 38.8 147.188 38.5973 148.127 38.192C149.087 37.7653 149.897 37.1893 150.559 36.464L153.055 38.96C152.031 40.0053 150.825 40.8267 149.439 41.424C148.052 42.0213 146.463 42.32 144.671 42.32ZM155.858 42V26.64H159.378V42H155.858ZM159.378 33.456L158.162 32.848C158.162 30.9067 158.589 29.3387 159.442 28.144C160.317 26.928 161.629 26.32 163.378 26.32C164.146 26.32 164.84 26.4587 165.458 26.736C166.077 27.0133 166.653 27.4613 167.186 28.08L164.882 30.448C164.605 30.1493 164.296 29.936 163.954 29.808C163.613 29.68 163.218 29.616 162.77 29.616C161.789 29.616 160.978 29.9253 160.338 30.544C159.698 31.1627 159.378 32.1333 159.378 33.456ZM174.853 42.32C173.466 42.32 172.207 41.968 171.077 41.264C169.967 40.56 169.082 39.6107 168.421 38.416C167.781 37.2 167.461 35.8453 167.461 34.352C167.461 32.8373 167.781 31.4827 168.421 30.288C169.082 29.072 169.967 28.112 171.077 27.408C172.207 26.6827 173.466 26.32 174.853 26.32C176.026 26.32 177.061 26.576 177.957 27.088C178.874 27.5787 179.599 28.2613 180.133 29.136C180.666 30.0107 180.933 31.0027 180.933 32.112V36.528C180.933 37.6373 180.666 38.6293 180.133 39.504C179.621 40.3787 178.906 41.072 177.989 41.584C177.071 42.0747 176.026 42.32 174.853 42.32ZM175.429 38.992C176.73 38.992 177.775 38.5547 178.565 37.68C179.375 36.8053 179.781 35.6853 179.781 34.32C179.781 33.4027 179.599 32.592 179.237 31.888C178.874 31.184 178.362 30.64 177.701 30.256C177.061 29.8507 176.303 29.648 175.429 29.648C174.575 29.648 173.818 29.8507 173.157 30.256C172.517 30.64 172.005 31.184 171.621 31.888C171.258 32.592 171.077 33.4027 171.077 34.32C171.077 35.2373 171.258 36.048 171.621 36.752C172.005 37.456 172.517 38.0107 173.157 38.416C173.818 38.8 174.575 38.992 175.429 38.992ZM179.557 42V37.872L180.165 34.128L179.557 30.416V26.64H183.077V42H179.557ZM185.831 40.08L194.407 28.56H198.535L189.959 40.08H185.831ZM185.831 42V40.08L189.031 38.8H198.343V42H185.831ZM186.407 29.84V26.64H198.535V28.56L195.335 29.84H186.407ZM208.307 42.32C206.771 42.32 205.384 41.9787 204.147 41.296C202.931 40.592 201.96 39.632 201.235 38.416C200.531 37.2 200.179 35.8347 200.179 34.32C200.179 32.8053 200.531 31.4507 201.235 30.256C201.939 29.04 202.888 28.08 204.083 27.376C205.299 26.672 206.643 26.32 208.115 26.32C209.544 26.32 210.803 26.6507 211.891 27.312C213 27.9733 213.864 28.88 214.483 30.032C215.123 31.184 215.443 32.496 215.443 33.968C215.443 34.224 215.421 34.4907 215.379 34.768C215.357 35.024 215.315 35.312 215.251 35.632H202.643V32.752H213.427L212.115 33.904C212.072 32.9653 211.891 32.176 211.571 31.536C211.251 30.896 210.792 30.4053 210.195 30.064C209.619 29.7227 208.904 29.552 208.051 29.552C207.155 29.552 206.376 29.744 205.715 30.128C205.053 30.512 204.541 31.056 204.179 31.76C203.816 32.4427 203.635 33.264 203.635 34.224C203.635 35.184 203.827 36.0267 204.211 36.752C204.595 37.4773 205.139 38.0427 205.843 38.448C206.547 38.832 207.357 39.024 208.275 39.024C209.064 39.024 209.789 38.8853 210.451 38.608C211.133 38.3307 211.709 37.9253 212.179 37.392L214.419 39.664C213.672 40.5387 212.765 41.2 211.699 41.648C210.632 42.096 209.501 42.32 208.307 42.32Z" fill="#008774"/>
</svg>
