<svg width="193" height="63" viewBox="0 0 193 63" fill="none" xmlns="http://www.w3.org/2000/svg">
<g clip-path="url(#clip0_96_164)">
<path d="M0 0C63.69 0 127.38 0 193 0C193 20.79 193 41.58 193 63C129.31 63 65.62 63 0 63C0 42.21 0 21.42 0 0Z" fill="#FEFEFE"/>
<path d="M96.0711 25.2C97.0632 25.1906 98.0553 25.1838 99.0475 25.1792C99.3849 25.1773 99.7222 25.1748 100.06 25.1715C100.545 25.1669 101.03 25.1647 101.516 25.1631C101.666 25.1611 101.817 25.1592 101.972 25.1572C102.606 25.157 103.077 25.179 103.647 25.3481C104.099 25.6376 104.285 25.9 104.516 26.2686C104.651 26.4805 104.651 26.4805 104.789 26.6966C104.93 26.9252 104.93 26.9252 105.074 27.1584C105.174 27.3161 105.274 27.4738 105.374 27.6314C105.636 28.0454 105.894 28.46 106.152 28.8748C106.416 29.2984 106.683 29.7213 106.95 30.1443C107.473 30.9735 107.992 31.8035 108.509 32.634C109.175 31.7089 109.812 30.7806 110.406 29.8389C110.555 29.6055 110.704 29.3721 110.853 29.1387C111.083 28.7778 111.313 28.4168 111.54 28.0554C111.764 27.7019 111.989 27.3489 112.216 26.996C112.316 26.8343 112.316 26.8343 112.419 26.6694C112.517 26.5179 112.517 26.5179 112.617 26.3633C112.701 26.2312 112.701 26.2312 112.786 26.0965C113.012 25.83 113.012 25.83 113.87 25.2C116.276 25.2 118.682 25.2 121.161 25.2C121.161 29.4827 121.161 33.7655 121.161 38.178C119.321 38.178 117.481 38.178 115.586 38.178C115.479 34.5605 115.479 34.5605 115.371 30.87C115.033 31.3779 114.695 31.8858 114.347 32.4091C114.077 32.813 113.808 33.217 113.539 33.6209C113.254 34.0478 112.969 34.4748 112.685 34.9018C112.412 35.3129 112.138 35.7238 111.863 36.1346C111.708 36.3683 111.552 36.6021 111.397 36.8359C111.303 36.9772 111.208 37.1184 111.111 37.264C111.027 37.389 110.944 37.5141 110.858 37.643C110.653 37.926 110.653 37.926 110.439 38.052C109.825 38.0612 109.216 38.0636 108.603 38.0599C108.43 38.0593 108.257 38.0587 108.079 38.0581C107.65 38.0567 107.222 38.0544 106.793 38.052C105.785 36.8091 104.94 35.5295 104.086 34.2484C103.941 34.0325 103.797 33.8167 103.652 33.6009C103.512 33.3923 103.373 33.1837 103.233 32.9751C103.17 32.8799 103.106 32.7847 103.04 32.6867C102.979 32.5953 102.918 32.504 102.856 32.41C102.777 32.292 102.777 32.292 102.697 32.1717C102.413 31.7388 102.138 31.3042 101.861 30.87C101.79 33.2816 101.72 35.6933 101.647 38.178C99.8775 38.178 98.1083 38.178 96.2856 38.178C95.8643 37.9305 96.0453 37.5501 96.0444 37.2207C96.0452 37.101 96.046 36.9813 96.0468 36.8579C96.0467 36.6699 96.0467 36.6699 96.0467 36.478C96.0468 36.0614 96.0485 35.6449 96.0502 35.2283C96.0506 34.9403 96.0509 34.6524 96.0511 34.3644C96.0519 33.6048 96.054 32.8452 96.0564 32.0856C96.0586 31.3112 96.0596 30.5368 96.0606 29.7623C96.063 28.2415 96.0666 26.7208 96.0711 25.2Z" fill="#5C5C5C"/>
<path d="M89.3831 26.1765C91.6214 27.2011 93.4315 28.5459 93.8722 30.2385C94.1787 32.3747 93.949 34.0962 91.6021 35.8514C89.4391 37.3016 86.8332 38.1648 83.5445 38.3439C80.3385 38.4086 77.3508 37.7372 74.9885 36.4534C72.4938 34.8776 71.7216 33.0261 71.7794 30.9443C71.8903 29.3641 73.3346 27.7974 75.27 26.712C79.3385 24.6298 84.9248 24.3921 89.3831 26.1765Z" fill="#5C5C5C"/>
<path d="M51.8004 25.1491C52.097 25.1467 52.097 25.1467 52.3996 25.1443C52.6133 25.1446 52.8271 25.145 53.0473 25.1454C53.3795 25.1444 53.3795 25.1444 53.7184 25.1434C54.1884 25.1426 54.6583 25.1427 55.1283 25.1438C55.84 25.1449 56.5513 25.1413 57.2629 25.1373C61.6991 25.1285 61.6991 25.1285 63.69 25.704C63.9183 25.7679 64.1467 25.8317 64.3819 25.8975C67.3209 26.9971 69.1037 28.4996 69.9089 30.492C70.1493 31.8085 69.995 33.0588 69.0511 34.272C68.9759 34.3709 68.9007 34.4699 68.8233 34.5718C67.3753 36.2704 64.9078 37.3393 61.9108 37.9605C60.4663 38.1886 59.0585 38.1951 57.5725 38.1903C57.2544 38.1901 57.2544 38.1901 56.9298 38.1898C56.2569 38.1891 55.5841 38.1875 54.9112 38.1859C54.4531 38.1853 53.995 38.1847 53.537 38.1842C52.418 38.1828 51.299 38.1807 50.18 38.178C50.1651 36.5417 50.1537 34.9054 50.1467 33.2691C50.1433 32.5093 50.1387 31.7496 50.1315 30.9898C50.1245 30.257 50.1206 29.5242 50.119 28.7914C50.1178 28.5114 50.1154 28.2314 50.112 27.9515C50.1073 27.5601 50.1067 27.1689 50.107 26.7776C50.1046 26.6611 50.1023 26.5447 50.0999 26.4247C50.1008 26.3181 50.1017 26.2116 50.1026 26.1018C50.102 26.0093 50.1014 25.9167 50.1008 25.8213C50.2837 25.2592 50.9175 25.1526 51.8004 25.1491Z" fill="#5C5C5C"/>
<path d="M123.949 25.2C129.115 25.2 134.281 25.2 139.603 25.2C139.603 26.2395 139.603 27.279 139.603 28.35C136.277 28.35 132.951 28.35 129.524 28.35C129.524 28.8906 129.524 29.4311 129.524 29.988C132.284 29.988 135.044 29.988 137.888 29.988C137.888 30.9028 137.888 31.8175 137.888 32.76C135.128 32.76 132.368 32.76 129.524 32.76C129.524 33.4669 129.524 34.1737 129.524 34.902C132.85 34.902 136.177 34.902 139.603 34.902C139.603 35.9831 139.603 37.0642 139.603 38.178C137.721 38.1894 135.838 38.1987 133.955 38.2041C133.081 38.2068 132.206 38.2103 131.332 38.216C130.488 38.2215 129.644 38.2245 128.8 38.2258C128.478 38.2268 128.157 38.2286 127.835 38.2313C127.384 38.235 126.933 38.2355 126.481 38.2352C126.225 38.2363 125.968 38.2375 125.704 38.2386C124.839 38.1618 124.507 38.0731 123.949 37.674C123.797 37.2728 123.813 36.8812 123.827 36.4717C123.827 36.35 123.827 36.2282 123.827 36.1028C123.827 35.7005 123.836 35.2984 123.844 34.8961C123.846 34.6172 123.848 34.3382 123.849 34.0593C123.853 33.3251 123.863 32.591 123.875 31.8569C123.888 30.9761 123.893 30.0952 123.899 29.2144C123.91 27.8762 123.93 26.5382 123.949 25.2Z" fill="#5C5C5C"/>
<path d="M180.011 24.9195C182.634 24.8401 185.301 25.2913 187.408 26.2154C187.973 26.5257 188.441 26.8618 188.926 27.216C188.334 27.5745 187.739 27.9309 187.143 28.287C186.974 28.3892 186.806 28.4913 186.632 28.5966C186.47 28.6932 186.308 28.7899 186.14 28.8894C185.991 28.9792 185.842 29.0689 185.688 29.1614C185.28 29.358 185.28 29.358 184.637 29.358C184.637 29.2748 184.637 29.1917 184.637 29.106C184.353 29.0193 184.066 28.9363 183.779 28.854C183.575 28.7864 183.372 28.7189 183.162 28.6492C181.825 28.3184 180.116 28.3329 178.738 28.5675C177.171 28.998 176.268 29.6933 175.63 30.618C175.105 31.6761 175.516 32.5368 176.273 33.516C177.089 34.2923 178.439 34.6846 179.919 34.902C181.557 35.0152 183.134 34.6653 184.462 34.1145C184.591 34.0417 184.719 33.969 184.851 33.894C185.527 34.0696 185.979 34.2751 186.496 34.584C186.639 34.6685 186.781 34.753 186.928 34.84C187.147 34.972 187.147 34.972 187.371 35.1067C187.52 35.1958 187.67 35.2848 187.824 35.3765C188.192 35.5958 188.559 35.8156 188.926 36.036C188.245 36.9263 186.485 37.4763 184.998 37.8551C182.073 38.4402 179.138 38.5537 176.273 37.8C173.192 36.8989 171.227 35.5586 169.996 33.6784C169.155 32.122 169.405 30.1652 170.601 28.6995C170.965 28.3181 171.351 27.9553 171.77 27.594C171.911 27.47 171.911 27.47 172.056 27.3435C173.684 26.086 176.297 25.36 178.833 24.9795C179.226 24.9607 179.619 24.9409 180.011 24.9195Z" fill="#5C5C5C"/>
<path d="M141.748 25.2C147.621 25.2 153.495 25.2 159.547 25.2C159.547 26.2811 159.547 27.3622 159.547 28.476C157.636 28.476 155.725 28.476 153.757 28.476C153.758 28.7654 153.759 29.0549 153.76 29.3531C153.764 30.3071 153.766 31.2611 153.768 32.2152C153.769 32.7938 153.77 33.3725 153.773 33.9512C153.775 34.5092 153.776 35.0672 153.777 35.6252C153.777 35.8385 153.778 36.0519 153.779 36.2653C153.781 36.5631 153.781 36.8609 153.781 37.1587C153.782 37.2478 153.783 37.3368 153.783 37.4286C153.781 38.0376 153.781 38.0376 153.542 38.178C151.632 38.178 149.721 38.178 147.752 38.178C147.752 34.9348 147.752 31.6915 147.752 28.35C145.983 28.35 144.214 28.35 142.391 28.35C142.179 28.2253 141.967 28.1005 141.748 27.972C141.748 27.0573 141.748 26.1425 141.748 25.2Z" fill="#5C5C5C"/>
<path d="M31.5233 24.318C32.3671 24.5186 32.9335 24.8606 33.5612 25.2348C33.6763 25.3024 33.7915 25.37 33.9102 25.4397C34.2894 25.6627 34.6672 25.8866 35.0449 26.1105C35.308 26.2656 35.5712 26.4206 35.8345 26.5756C36.5265 26.9831 37.2171 27.3914 37.9075 27.7998C38.6125 28.2166 39.3187 28.6327 40.0249 29.0489C41.4096 29.8652 42.793 30.6824 44.1755 31.5C43.8783 31.8932 43.5337 32.1604 43.0165 32.4636C42.793 32.5955 42.793 32.5955 42.565 32.7301C42.3231 32.8708 42.3231 32.8708 42.0763 33.0145C41.9097 33.1123 41.743 33.2102 41.5712 33.311C41.2181 33.5182 40.8644 33.725 40.5102 33.9316C39.9725 34.2452 39.4365 34.5599 38.9007 34.8747C38.5565 35.0763 38.2122 35.2778 37.8679 35.4793C37.7092 35.5724 37.5505 35.6655 37.3871 35.7614C36.5161 36.2686 35.6278 36.7543 34.691 37.2194C34.1758 37.4941 33.7418 37.7986 33.3084 38.1175C32.835 38.4284 32.4615 38.5497 31.7611 38.6045C30.9132 38.5428 30.6641 38.3911 30.0775 38.0323C29.808 37.8703 29.808 37.8703 29.533 37.705C29.3495 37.5908 29.1659 37.4766 28.9768 37.359C28.7883 37.2448 28.5997 37.1306 28.4055 37.013C27.9406 36.7309 27.479 36.4473 27.02 36.162C27.8837 35.553 28.7878 34.98 29.7458 34.4221C29.8772 34.3451 30.0087 34.268 30.1441 34.1886C30.5587 33.9457 30.974 33.7033 31.3893 33.4609C31.6728 33.2949 31.9562 33.129 32.2395 32.963C32.9295 32.559 33.6201 32.1554 34.3111 31.752C34.0343 31.3923 33.7489 31.1408 33.2626 30.8693C33.1382 30.7991 33.0137 30.7288 32.8855 30.6564C32.7516 30.5818 32.6178 30.5073 32.4799 30.4305C32.1978 30.2697 31.9158 30.1088 31.6339 29.9479C31.1898 29.6955 30.7447 29.4439 30.2968 29.194C29.8639 28.9519 29.436 28.7071 29.0086 28.4617C28.8739 28.3879 28.7393 28.3141 28.6005 28.2381C27.9496 27.8603 27.6873 27.677 27.5299 27.1329C27.6817 26.6539 27.8558 26.4958 28.4532 26.1662C28.6985 26.0272 28.6985 26.0272 28.9487 25.8854C29.1216 25.7917 29.2945 25.6981 29.4727 25.6016C29.8123 25.412 30.1516 25.2222 30.4905 25.0322C30.6421 24.9494 30.7937 24.8665 30.9499 24.7812C31.3275 24.5813 31.3275 24.5813 31.5233 24.318Z" fill="#5C5C5C"/>
<path d="M16.2978 24.318C17.6669 24.9839 18.9278 25.71 20.1896 26.4442C20.3015 26.5093 20.4134 26.5744 20.5287 26.6415C21.1192 26.9851 21.7089 27.3291 22.2981 27.6735C22.7842 27.9574 23.2718 28.2403 23.7607 28.5225C24.3544 28.8651 24.9454 29.2092 25.5345 29.5545C25.7585 29.6853 25.9833 29.8155 26.2091 29.9451C26.5243 30.1263 26.8358 30.3093 27.1468 30.493C27.4136 30.6482 27.4136 30.6482 27.6857 30.8066C28.1588 31.1737 28.2621 31.4218 28.3067 31.878C28.0897 32.1192 28.0897 32.1192 27.7303 32.3347C27.5943 32.4182 27.4583 32.5017 27.3182 32.5877C27.149 32.6862 26.9798 32.7846 26.8055 32.886C26.5809 33.0194 26.3564 33.153 26.1321 33.2866C25.5031 33.6597 24.8689 34.0295 24.2322 34.398C23.4641 34.2108 23.0481 33.9607 22.5108 33.5918C21.3811 32.8356 20.1803 32.1292 18.9649 31.4212C18.7464 31.2935 18.5279 31.1657 18.3094 31.0378C17.7824 30.7295 17.2547 30.4217 16.7267 30.114C16.1146 30.2765 15.6882 30.4435 15.2278 30.73C15.1089 30.8032 14.99 30.8763 14.8675 30.9517C14.7413 31.0303 14.6151 31.1089 14.485 31.1899C14.2124 31.3557 13.9396 31.5214 13.6666 31.687C13.2387 31.9478 12.8123 32.2092 12.3893 32.4727C11.9794 32.7273 11.5641 32.9786 11.1477 33.2295C11.0233 33.3087 10.8988 33.3878 10.7705 33.4693C10.1362 33.8467 9.68501 34.0706 8.76184 34.1004C7.84288 34.0111 7.55227 33.9157 6.92252 33.5239C6.7539 33.4215 6.58528 33.3192 6.41154 33.2138C6.24181 33.1056 6.07208 32.9974 5.89721 32.886C5.72085 32.7778 5.54448 32.6696 5.36277 32.5582C4.9292 32.2916 4.50013 32.0229 4.07443 31.752C4.41593 31.2562 4.99796 30.9234 5.6347 30.5546C5.7498 30.487 5.86491 30.4193 5.98349 30.3496C6.36307 30.1267 6.74414 29.9048 7.12524 29.6828C7.38915 29.5282 7.65297 29.3736 7.9167 29.2189C8.61027 28.8123 9.30511 28.4065 10.0002 28.0009C10.7096 27.5867 11.4178 27.1717 12.1262 26.7568C13.5155 25.9431 14.9062 25.1303 16.2978 24.318Z" fill="#5C5C5C"/>
<path d="M161.691 25.2C163.673 25.2 165.654 25.2 167.696 25.2C167.696 29.4828 167.696 33.7655 167.696 38.178C165.714 38.178 163.733 38.178 161.691 38.178C161.691 33.8953 161.691 29.6125 161.691 25.2Z" fill="#5C5C5C"/>
<path d="M85.4561 28.539C86.8278 29.0359 87.9204 29.8359 88.3511 30.744C88.5473 32.0101 88.3777 32.9486 86.984 33.9334C85.7406 34.7178 84.6482 34.9186 82.856 34.9571C81.309 34.9477 80.2842 34.7569 79.13 34.146C77.6657 33.1243 77.2299 32.192 77.4144 30.87C77.7506 29.8875 78.7926 29.1599 80.1888 28.6099C81.7276 28.1471 83.869 28.1336 85.4561 28.539Z" fill="#FCFCFC"/>
<path d="M55.5411 28.35C60.9813 28.35 60.9813 28.35 62.5776 29.1828C63.7659 29.9145 64.1504 30.6761 64.2261 31.6732C64.1822 32.5999 63.79 33.3447 62.6387 34.0003C60.2828 35.0843 58.9391 34.902 55.5411 34.902C55.5411 32.7398 55.5411 30.5777 55.5411 28.35Z" fill="#F9F9F9"/>
</g>
<defs>
<clipPath id="clip0_96_164">
<rect width="193" height="63" fill="white"/>
</clipPath>
</defs>
</svg>
