<svg width="194" height="58" viewBox="0 0 194 58" fill="none" xmlns="http://www.w3.org/2000/svg">
<path fill-rule="evenodd" clip-rule="evenodd" d="M13.5817 0.443878C7.54805 1.86716 5.28451 3.29229 2.73021 7.28026C-3.86412 17.5752 1.4187 31.2702 19.3234 50.3041C27.2304 58.7093 28.0009 58.319 21.8323 49.0357C12.2592 34.6295 10.0373 24.5117 14.7325 16.7008C18.8216 9.89594 24.3792 7.47312 37.5765 6.7434L42.4839 6.47265L34.5093 3.56767C25.7864 0.390099 18.4511 -0.704944 13.5817 0.443878ZM56.5927 27.8654V46.8734H60.229H63.8654L64.2163 37.833C64.5488 29.2572 64.7095 28.7778 67.3276 28.4959C71.5161 28.0472 71.2376 23.6929 67.0209 23.6929C64.1587 23.6929 63.9538 23.3842 63.9538 19.0569C63.9538 14.7295 64.1587 14.4208 67.0209 14.4208C69.6108 14.4208 70.088 13.9878 70.088 11.6391C70.088 8.88527 70.0193 8.85745 63.3403 8.85745H56.5927V27.8654ZM71.3149 27.8654V46.8734H75.6089H79.9028V27.8654V8.85745H75.6089H71.3149V27.8654ZM85.4875 13.7253C84.0287 23.5056 82.359 39.0922 82.3578 42.9327C82.3565 46.5183 82.6326 46.8734 85.4237 46.8734C87.8491 46.8734 88.4908 46.4051 88.4908 44.6314C88.4908 41.4306 89.7115 39.4556 91.6892 39.4556C92.8657 39.4556 93.3982 40.6128 93.3982 43.1645C93.3982 46.6675 93.6031 46.8734 97.0788 46.8734C101.54 46.8734 101.522 47.0431 98.9068 28.2168C96.0421 7.59736 96.5573 8.85745 90.9776 8.85745H86.2138L85.4875 13.7253ZM103.213 27.8654V46.8734H106.894H110.574L110.72 37.833C110.872 28.3624 111.343 29.1088 113.646 42.4691C114.246 45.9499 114.886 46.8734 116.701 46.8734C119.403 46.8734 119.753 46.1158 121.857 35.7468L123.456 27.8654L123.806 37.3694C124.152 46.7816 124.185 46.8734 127.18 46.8734H130.204V27.8654V8.85745H124.787H119.372L118.476 16.0434C117.484 24.0054 116.186 23.3406 114.853 14.189L114.078 8.85745H108.646H103.213V27.8654ZM133.884 27.8654V46.8734H136.951C140.003 46.8734 140.02 46.8261 140.174 37.833L140.331 28.7926L141.437 34.8196C143.617 46.7019 143.684 46.8734 146.111 46.8734C148.57 46.8734 148.895 46.1418 150.995 35.8562C151.659 32.6007 152.498 29.7152 152.859 29.4426C153.219 29.17 153.514 32.9809 153.514 37.91C153.514 46.853 153.521 46.8734 156.581 46.8734H159.648V27.8654V8.85745H154.294H148.94L148.16 13.1597C147.731 15.5251 147.38 18.6795 147.38 20.1686C147.38 25.3007 145.246 21.8645 144.4 15.3684L143.551 8.85745H138.717H133.884V27.8654ZM165.768 10.4801C165.759 11.373 164.937 18.9873 163.942 27.4018C161.538 47.732 161.484 46.8734 165.154 46.8734C167.767 46.8734 168.321 46.3393 168.992 43.1645C169.435 41.0709 170.463 39.4556 171.352 39.4556C172.234 39.4556 173.293 41.0885 173.757 43.1645C174.508 46.5257 174.931 46.8734 178.256 46.8734C181.603 46.8734 181.868 46.649 181.263 44.3235C180.897 42.9207 179.723 34.8891 178.653 26.4746C177.584 18.0601 176.476 10.6544 176.191 10.0165C175.892 9.34517 173.591 8.85745 170.728 8.85745C166.841 8.85745 165.779 9.20516 165.768 10.4801ZM23.4677 19.7921C17.3261 21.2395 15.3471 26.8279 19.7871 30.1835C26.7875 35.4742 37.1986 28.3309 31.4802 22.1602C29.5173 20.0434 26.3618 19.1106 23.4677 19.7921ZM172.244 29.9517C172.611 32.1195 172.411 33.8923 171.8 33.8923C171.189 33.8923 170.69 31.9452 170.69 29.565C170.69 24.3856 171.331 24.5451 172.244 29.9517ZM91.6389 33.6763C90.1973 34.7658 89.8232 33.208 90.6758 29.6707L91.5579 26.011L91.9456 29.5808C92.1591 31.5446 92.0217 33.387 91.6389 33.6763ZM43.0973 53.8275V58H118.549H194V53.8275V49.655H118.549H43.0973V53.8275Z" fill="#5C5C5C"/>
</svg>
