<svg width="194" height="107" viewBox="0 0 194 107" fill="none" xmlns="http://www.w3.org/2000/svg">
<g clip-path="url(#clip0_96_177)">
<path d="M0 0C64.02 0 128.04 0 194 0C194 35.31 194 70.62 194 107C129.98 107 65.96 107 0 107C0 71.69 0 36.38 0 0Z" fill="#F4F4F4"/>
<path d="M55.5325 15.0469C56.6269 15.0454 56.6269 15.0454 57.7434 15.0439C62.3357 15.1034 66.6461 15.6165 71.1333 16.5595C71.8027 16.6794 72.4721 16.7993 73.1618 16.9228C85.9804 19.6682 98.768 27.9827 106.7 38.2143C106.074 38.0074 106.074 38.0074 105.434 37.7963C101.142 36.5471 97.1237 36.1114 92.6754 36.1046C91.916 36.0996 91.916 36.0996 91.1413 36.0946C85.9347 36.1549 81.5754 37.1036 76.9533 39.4881C75.0133 39.4881 75.0133 39.4881 74.061 38.5527C73.7217 38.1257 73.3825 37.6988 73.0329 37.259C66.0399 29.1008 56.5823 24.8081 45.9133 23.5655C37.9395 22.9735 31.2873 23.5768 23.9267 26.75C22.9826 27.154 22.9826 27.154 22.0195 27.5661C16.7731 30.1018 11.3461 34.2677 8.02271 39.0652C7.72262 39.4149 7.42253 39.7647 7.11334 40.125C6.25974 40.125 5.40614 40.125 4.52667 40.125C8.21925 31.2021 20.5877 24.157 29.0773 20.5427C29.725 20.2791 30.3727 20.0156 31.04 19.7441C31.7711 19.4239 32.5021 19.1037 33.2553 18.7738C40.595 15.7874 47.6535 15.0527 55.5325 15.0469Z" fill="#5C5C5C"/>
<path d="M182.36 73.881C182.787 73.881 183.214 73.881 183.653 73.881C180.126 81.7522 172.101 86.6401 164.352 89.7762C154.921 92.8493 143.663 93.2518 134.507 89.1667C132.231 88.0379 130.131 86.7769 128.04 85.3453C127.526 84.9963 127.013 84.6474 126.484 84.2879C123.11 81.8566 120.646 79.2208 118.34 75.7917C119.303 75.8139 119.303 75.8139 120.285 75.8365C121.172 75.8498 122.06 75.8613 122.947 75.8713C123.645 75.8797 123.645 75.8797 124.357 75.8883C128.313 75.8895 131.939 75.3316 135.808 74.4855C137.74 74.5179 137.74 74.5179 139.417 75.9584C139.931 76.5339 140.444 77.1094 140.973 77.7024C142.497 78.7959 142.497 78.7959 144.085 79.6927C144.596 79.9965 145.107 80.3003 145.634 80.6133C149.985 82.8069 153.651 83.7754 158.555 83.7132C159.091 83.7084 159.627 83.7036 160.18 83.6986C169.246 83.4617 176.117 80.2164 182.36 73.881Z" fill="#5C5C5C"/>
<path d="M105.003 47.2504C107.242 48.773 108.718 50.4687 109.933 52.8631C110.427 57.2222 110.057 60.1782 107.347 63.6905C105.16 65.6438 103.499 66.4001 100.597 66.5167C97.7634 66.3711 95.5923 65.7597 93.12 64.3274C90.6636 61.2713 89.6414 58.7803 89.7073 54.8534C90.1303 51.6615 91.8326 49.6277 94.1709 47.4892C97.8358 45.8181 101.221 45.9398 105.003 47.2504Z" fill="#F0F0F0"/>
<path d="M50.6421 47.2106C52.7505 48.6594 54.5074 49.9174 55.6133 52.2262C56.2412 56.1463 56.0513 59.7425 53.6733 63.0536C50.4876 65.8851 48.5299 66.465 44.3219 66.4172C41.2166 66.0785 39.4974 64.4126 37.4208 62.2624C35.3002 59.1777 35.7599 55.8125 36.2133 52.2262C39.0758 46.1701 44.5647 45.1777 50.6421 47.2106Z" fill="#F1F1F1"/>
<path d="M3.88 43.9464C9.05334 43.9464 9.05334 43.9464 10.3405 44.8977C10.6368 45.3375 10.9331 45.7772 11.2384 46.2303C11.5783 46.7155 11.9183 47.2007 12.2685 47.7007C12.6079 48.222 12.9474 48.7433 13.2971 49.2805C13.6569 49.8035 14.0168 50.3265 14.3875 50.8653C15.0999 51.9021 15.8055 52.9435 16.5039 53.9895C17.7043 55.7739 18.9724 57.4998 20.2488 59.2321C21.9867 61.6194 21.9867 61.6194 21.9867 63.0536C22.4135 63.0536 22.8403 63.0536 23.28 63.0536C23.28 56.7482 23.28 50.4428 23.28 43.9464C24.5604 43.9464 25.8408 43.9464 27.16 43.9464C27.16 52.1434 27.16 60.3403 27.16 68.7857C22.6333 68.7857 22.6333 68.7857 21.2642 67.6836C20.8891 67.1671 20.514 66.6507 20.1275 66.1187C19.6982 65.5407 19.2689 64.9627 18.8266 64.3672C18.3756 63.7235 17.9246 63.0798 17.46 62.4166C16.9577 61.7131 16.455 61.0099 15.952 60.3069C14.9732 58.9309 14.0075 57.5483 13.047 56.1596C11.53 53.9788 9.9667 51.8296 8.40667 49.6786C8.19327 55.9839 7.97987 62.2893 7.76 68.7857C6.4796 68.7857 5.1992 68.7857 3.88 68.7857C3.88 60.5887 3.88 52.3918 3.88 43.9464Z" fill="#5C5C5C"/>
<path d="M54.9667 45.8572C58.727 49.6507 59.7261 52.6582 59.6752 57.8837C59.3447 61.4909 57.9857 63.872 55.4517 66.4372C51.1617 69.0299 47.0849 70.1266 42.0333 69.4226C37.302 67.9832 35.0134 65.1024 32.3333 61.1429C31.7988 56.8753 31.363 52.2356 34.0308 48.6038C39.7996 42.4398 47.6826 41.4555 54.9667 45.8572ZM37.3046 49.9174C35.6487 53.4207 35.5713 56.7121 36.2133 60.506C37.6838 63.2904 39.7308 65.0665 42.68 66.2381C45.9088 66.6894 48.4461 66.5894 51.3696 65.1235C53.9519 62.8904 55.3747 61.1005 55.8129 57.6698C55.9628 54.465 56.0037 52.1918 53.8754 49.6388C51.1743 47.0587 48.9887 46.436 45.2667 46.295C41.5605 46.3871 39.8854 47.3069 37.3046 49.9174Z" fill="#5C5C5C"/>
<path d="M110.055 46.7379C112.698 49.0607 113.541 51.5629 114.013 54.9181C114.265 59.5326 112.938 62.6958 109.933 66.2381C106.379 69.0914 102.478 69.6612 98.0306 69.5968C94.2243 69.2016 91.5498 67.4639 88.9975 64.7255C86.5802 61.6784 85.6785 58.7285 85.8071 54.8236C86.4121 50.811 88.6894 47.7911 91.8873 45.3422C97.661 41.7881 104.79 42.8674 110.055 46.7379ZM91.8267 49.6786C89.856 52.4961 89.3058 55.232 89.8867 58.5953C90.9246 61.5257 92.1867 64.0978 95.06 65.6012C98.2362 66.5166 101.681 67.0211 104.783 65.6609C107.398 63.9545 108.959 62.2254 109.933 59.2322C110.363 55.9893 110.324 53.6185 108.802 50.6738C106.59 48.1934 104.786 46.7311 101.375 46.3199C97.2745 46.1569 94.7041 46.6951 91.8267 49.6786Z" fill="#5C5C5C"/>
<path d="M161.02 43.9464C163.089 43.6877 163.089 43.6877 165.547 43.9464C166.848 45.3576 167.706 46.4764 168.659 48.0863C169.534 49.49 170.431 50.8594 171.367 52.2262C171.793 52.2262 172.22 52.2262 172.66 52.2262C173.858 50.4767 174.997 48.7123 176.076 46.8896C176.81 45.7576 176.81 45.7576 178.48 43.9464C180.938 43.6877 180.938 43.6877 183.007 43.9464C181.125 47.2134 178.769 50.0413 176.388 52.9651C175.095 54.597 175.095 54.597 175.389 56.0086C175.957 57.4858 176.667 58.5107 177.654 59.7546C178.002 60.2004 178.35 60.6462 178.709 61.1055C179.073 61.5645 179.438 62.0234 179.814 62.4963C180.538 63.4114 181.26 64.3285 181.979 65.2479C182.3 65.652 182.621 66.056 182.951 66.4723C183.653 67.5119 183.653 67.5119 183.653 68.7857C181.602 69.0644 181.602 69.0644 179.127 68.7857C177.674 67.5052 176.737 65.9611 175.732 64.3274C174.751 62.7929 173.747 61.3368 172.66 59.8691C172.02 59.8691 171.38 59.8691 170.72 59.8691C169.334 61.7394 168.073 63.6375 166.855 65.6161C166.053 66.8181 165.343 67.8256 164.253 68.7857C161.778 69.0644 161.778 69.0644 159.727 68.7857C162.605 64.4366 165.655 60.2275 168.78 56.0476C167.091 53.1358 165.085 50.5343 162.994 47.8935C161.02 45.3554 161.02 45.3554 161.02 43.9464Z" fill="#5C5C5C"/>
<path d="M139.033 43.9464C144.582 43.9464 150.13 43.9464 155.847 43.9464C155.847 44.9973 155.847 46.0482 155.847 47.1309C151.365 47.1309 146.884 47.1309 142.267 47.1309C142.267 49.6531 142.267 52.1752 142.267 54.7738C146.535 54.7738 150.803 54.7738 155.2 54.7738C155.2 55.6145 155.2 56.4552 155.2 57.3214C150.932 57.3214 146.664 57.3214 142.267 57.3214C142.267 60.0537 142.267 62.7861 142.267 65.6012C146.961 65.6012 151.656 65.6012 156.493 65.6012C156.493 66.6521 156.493 67.703 156.493 68.7857C150.732 68.7857 144.97 68.7857 139.033 68.7857C139.033 60.5887 139.033 52.3918 139.033 43.9464Z" fill="#5C5C5C"/>
<path d="M60.7867 43.9464C62.2805 43.9464 63.7743 43.9464 65.3133 43.9464C65.5254 44.4833 65.7375 45.0202 65.9561 45.5733C66.7417 47.5596 67.5288 49.5453 68.317 51.5306C68.6582 52.391 68.9988 53.2516 69.3388 54.1125C69.8267 55.3478 70.3169 56.5822 70.8075 57.8165C71.2494 58.9322 71.2494 58.9322 71.7003 60.0704C72.2638 61.6998 72.2638 61.6998 73.0733 62.4166C73.2165 62.0608 73.3597 61.7049 73.5072 61.3383C74.1697 59.6937 74.834 58.0498 75.4983 56.4059C75.7234 55.8463 75.9485 55.2868 76.1804 54.7104C77.648 51.0833 79.1938 47.5014 80.8333 43.9464C82.1137 43.9464 83.3941 43.9464 84.7133 43.9464C83.2275 48.5531 81.4419 52.9865 79.54 57.4408C79.1149 58.4476 79.1149 58.4476 78.6812 59.4747C77.3393 62.6334 75.9832 65.7534 74.3667 68.7857C73.2997 68.7857 72.2327 68.7857 71.1333 68.7857C67.5013 60.5711 64.0162 52.3228 60.7867 43.9464Z" fill="#5C5C5C"/>
<path d="M118.987 43.9464C120.054 43.9464 121.121 43.9464 122.22 43.9464C122.22 51.0925 122.22 58.2386 122.22 65.6012C126.275 65.6012 130.329 65.6012 134.507 65.6012C134.507 66.6521 134.507 67.703 134.507 68.7857C129.385 68.7857 124.263 68.7857 118.987 68.7857C118.987 60.5887 118.987 52.3918 118.987 43.9464Z" fill="#5C5C5C"/>
<path d="M25.22 22.9286C25.22 23.3489 25.22 23.7693 25.22 24.2024C26.0736 24.6228 26.9272 25.0431 27.8067 25.4762C27.4224 25.6084 27.0381 25.7406 26.6422 25.8768C19.4776 28.4996 10.6854 33.0887 7.11334 40.125C6.25974 40.125 5.40614 40.125 4.52667 40.125C5.56318 37.6204 7.30103 35.8747 9.21501 33.9948C9.55126 33.6633 9.88751 33.3317 10.2339 32.9902C20.7339 22.9286 20.7339 22.9286 25.22 22.9286Z" fill="#5C5C5C"/>
<path d="M184.3 70.0596C186.461 70.0123 188.053 70.0179 190.12 70.6965C189.907 71.5372 189.693 72.3779 189.473 73.2441C188.62 73.2441 187.766 73.2441 186.887 73.2441C186.887 72.6135 186.887 71.983 186.887 71.3334C186.46 71.3334 186.033 71.3334 185.593 71.3334C185.38 71.9639 185.167 72.5944 184.947 73.2441C184.733 72.1932 184.52 71.1423 184.3 70.0596Z" fill="#7B7B7B"/>
<path d="M182.36 73.881C182.787 73.881 183.214 73.881 183.653 73.881C182.72 76.0248 181.498 77.3906 179.773 78.9762C179.347 78.5559 178.92 78.1355 178.48 77.7024C179 77.3083 179.52 76.9142 180.056 76.5082C181.738 75.3193 181.738 75.3193 182.36 73.881Z" fill="#5C5C5C"/>
<path d="M25.22 22.9286C25.22 23.3489 25.22 23.7693 25.22 24.2024C26.0736 24.6228 26.9272 25.0431 27.8067 25.4762C26.3129 25.8966 24.8191 26.3169 23.28 26.75C23.0666 25.6991 22.8532 24.6482 22.6334 23.5655C23.9267 22.9286 23.9267 22.9286 25.22 22.9286Z" fill="#5C5C5C"/>
</g>
<defs>
<clipPath id="clip0_96_177">
<rect width="194" height="107" fill="white"/>
</clipPath>
</defs>
</svg>
