<svg width="193" height="87" viewBox="0 0 193 87" fill="none" xmlns="http://www.w3.org/2000/svg">
<g clip-path="url(#clip0_96_194)">
<path d="M123.641 1.4282C123.761 1.49447 123.881 1.56075 124.005 1.62904C126.309 2.98345 128.111 5.2303 128.82 7.78853C129.623 11.1524 129.014 14.2898 127.19 17.2251C126.818 17.8069 126.416 18.3649 125.997 18.9146C125.808 19.1514 125.808 19.1514 125.691 19.3995C126.757 18.6806 127.818 17.9561 128.872 17.2203C129.532 16.7595 130.193 16.3011 130.856 15.8439C130.956 15.7744 131.057 15.705 131.16 15.6334C131.571 15.3498 131.982 15.0663 132.393 14.7828C133.438 14.0623 134.482 13.3413 135.522 12.6156C136.257 12.103 136.994 11.5924 137.731 11.0833C137.881 10.9796 137.881 10.9796 138.035 10.8738C138.557 10.5131 139.08 10.1528 139.603 9.79272C139.813 9.64768 140.024 9.50263 140.234 9.35757C140.335 9.28823 140.436 9.21888 140.54 9.14744C141.189 8.69946 141.829 8.24176 142.459 7.76668C142.699 7.61698 142.699 7.61698 143.061 7.61698C143.098 7.68321 143.134 7.74944 143.171 7.81767C144.023 9.37107 144.89 10.9143 145.787 12.443C145.949 12.7214 146.107 13.0015 146.264 13.2823C147.574 15.5924 149.237 17.0482 151.482 18.4413C151.952 18.7391 152.392 19.0608 152.832 19.3995C152.911 19.2563 152.911 19.2563 152.992 19.1103C153.928 17.4551 154.962 15.8459 156.209 14.4008C156.319 14.2704 156.429 14.1399 156.539 14.0094C157.723 12.6137 158.974 11.3563 160.431 10.2353C160.616 10.0903 160.616 10.0903 160.804 9.94242C165.98 5.90136 172.589 3.56219 179.219 4.27831C183.412 4.80183 187.347 6.82246 190.012 10.0884C190.215 10.3698 190.404 10.6549 190.588 10.9494C190.647 11.0401 190.707 11.1307 190.768 11.2242C191.515 12.393 192.096 13.6355 192.495 14.9587C192.518 15.0363 192.542 15.1138 192.566 15.1938C192.955 16.5598 193.049 17.9142 193.045 19.3251C193.045 19.4583 193.045 19.4583 193.045 19.5942C193.035 22.0177 192.578 24.1679 191.673 26.4214C191.625 26.542 191.625 26.542 191.576 26.665C191.279 27.4001 190.956 28.0837 190.535 28.757C190.269 29.2272 190.191 29.5227 190.252 30.0574C190.266 30.1826 190.28 30.3078 190.294 30.4368C190.379 31.0667 190.476 31.6935 190.583 32.32C190.606 32.4573 190.629 32.5945 190.653 32.7359C190.701 33.024 190.75 33.312 190.799 33.6C190.874 34.037 190.947 34.4742 191.02 34.9114C191.068 35.1931 191.115 35.4749 191.163 35.7566C191.185 35.8853 191.206 36.0141 191.228 36.1467C191.358 36.9017 191.522 37.6379 191.725 38.3772C191.905 39.1719 191.559 39.8618 191.243 40.5767C191.2 40.6755 191.157 40.7742 191.113 40.876C190.398 42.492 189.624 43.942 188.537 45.3447C188.463 45.4442 188.389 45.5436 188.314 45.646C187.142 47.1734 185.669 48.543 184.074 49.6293C183.996 49.6825 183.918 49.7356 183.838 49.7904C182.64 50.5995 181.411 51.2909 180.093 51.8906C179.959 51.9526 179.824 52.0145 179.686 52.0784C176.962 53.2827 173.953 54.1593 170.952 54.176C170.855 54.1767 170.757 54.1774 170.656 54.1781C170.45 54.1792 170.245 54.18 170.039 54.1805C169.731 54.1816 169.424 54.1853 169.117 54.1891C167.303 54.2008 165.555 54.0081 163.839 53.4006C163.733 53.364 163.626 53.3275 163.517 53.2898C163.211 53.1832 162.906 53.0734 162.603 52.9617C162.522 52.9324 162.442 52.9031 162.359 52.8729C161.114 52.408 159.995 51.7401 158.863 51.0575C158.662 50.9383 158.461 50.8192 158.26 50.7004C158.203 50.7725 158.146 50.8446 158.087 50.9189C156.773 52.5615 155.346 54.0483 153.676 55.342C153.557 55.4362 153.438 55.5304 153.316 55.6275C150.496 57.8238 147.311 59.4597 143.906 60.5787C143.802 60.613 143.699 60.6473 143.593 60.6826C140.19 61.7958 136.679 62.2721 133.102 62.2672C132.968 62.2672 132.968 62.2671 132.831 62.2671C130.566 62.2633 128.354 62.1132 126.16 61.5168C126.037 61.4833 126.037 61.4833 125.911 61.4491C125.682 61.3858 125.454 61.3198 125.226 61.2537C124.864 61.1775 124.697 61.1453 124.364 61.2928C124.184 61.4408 124.184 61.4408 124.018 61.6349C123.357 62.3148 122.592 62.8695 121.831 63.435C121.71 63.5262 121.588 63.6173 121.462 63.7112C117.514 66.5383 112.712 67.7169 107.884 66.9683C107.335 66.8807 106.829 66.7559 106.306 66.5689C105.881 66.4266 105.613 66.3518 105.185 66.5294C104.834 66.7658 104.834 66.7658 104.476 67.065C100.946 69.8381 96.4345 71.0622 91.9578 70.5837C90.983 70.4643 90.038 70.2336 89.0872 69.9953C88.992 69.9722 88.8968 69.9492 88.7988 69.9255C88.5781 69.8715 88.3585 69.8134 88.1392 69.7545C87.8013 69.711 87.8013 69.711 87.5229 69.9362C87.4302 70.0295 87.3375 70.1228 87.2421 70.2189C86.665 70.7679 86.0733 71.2158 85.4025 71.6471C85.2834 71.7242 85.1643 71.8014 85.0416 71.8809C81.2183 74.2835 76.5006 75.363 72.0131 74.5034C69.7888 74.0102 69.7888 74.0102 68.9146 73.6591C68.6496 73.5357 68.6496 73.5357 68.4043 73.5592C68.0191 73.7296 67.7143 73.9944 67.3917 74.258C65.1868 76.0036 62.7623 77.349 60.0752 78.2308C59.8637 78.3008 59.654 78.3756 59.4446 78.4514C55.4092 79.8316 50.6675 79.6157 46.6819 78.1929C46.5505 78.1478 46.4191 78.1027 46.2837 78.0562C45.537 77.7881 44.8223 77.4698 44.1111 77.1218C44.0332 77.0837 43.9553 77.0456 43.875 77.0063C43.4617 76.7993 43.0646 76.5768 42.6724 76.3328C42.587 76.2798 42.5016 76.2268 42.4136 76.1722C42.3493 76.1321 42.285 76.0919 42.2188 76.0506C42.1938 76.196 42.1689 76.3413 42.1432 76.491C42.0505 77.0305 41.9576 77.5699 41.8646 78.1093C41.8244 78.3427 41.7843 78.5761 41.7443 78.8095C41.6866 79.1452 41.6288 79.4808 41.5709 79.8163C41.5441 79.9728 41.5441 79.9728 41.5168 80.1323C41.4915 80.2788 41.4915 80.2788 41.4656 80.4283C41.4509 80.5139 41.4361 80.5995 41.421 80.6877C41.3744 80.9302 41.3168 81.1676 41.2538 81.4063C39.3353 81.8168 37.4168 82.2269 35.4982 82.6368C34.5909 82.8306 33.6836 83.0247 32.7764 83.2191C29.9031 83.8345 27.0274 84.4367 24.1476 85.0224C22.4458 85.3687 20.7467 85.7242 19.0512 86.1C16.7704 86.605 16.7704 86.605 15.6964 86.8215C15.6038 86.8406 15.5113 86.8597 15.416 86.8793C14.9327 86.9745 14.4841 87.0065 13.9925 87C14.006 86.9255 14.0195 86.851 14.0335 86.7742C14.8125 82.4806 14.8125 82.4806 15.5833 78.1855C15.9722 76.005 16.3673 73.8257 16.7669 71.6471C16.7861 71.5421 16.8054 71.4371 16.8252 71.3289C16.9423 70.6907 17.0598 70.0526 17.178 69.4146C17.2154 69.213 17.2526 69.0114 17.2896 68.8097C17.3409 68.531 17.3926 68.2524 17.4445 67.9739C17.4596 67.8909 17.4748 67.808 17.4904 67.7225C17.5975 67.1517 17.5975 67.1517 17.7319 66.8865C17.5853 66.8768 17.4386 66.8671 17.2876 66.8572C16.516 66.7717 15.8032 66.5291 15.0706 66.284C14.9265 66.2361 14.7825 66.1883 14.634 66.139C13.5191 65.7596 12.4889 65.3076 11.4594 64.7442C11.2854 64.657 11.2854 64.657 11.1079 64.568C9.43843 63.7207 8.0187 62.5285 6.6344 61.2928C6.54421 61.2139 6.45403 61.1351 6.36111 61.0538C2.28184 57.2826 0.176323 51.0182 -0.0105787 45.6344C-0.26501 36.459 1.83934 27.4542 7.72002 20.1136C7.79466 20.0184 7.8693 19.9233 7.94619 19.8253C9.85448 17.4247 11.993 15.0301 14.3568 13.0559C14.6593 12.7997 14.9509 12.5326 15.244 12.266C17.1925 10.519 19.3787 9.01818 21.5919 7.61698C21.6638 7.57124 21.7357 7.5255 21.8098 7.47838C27.5639 3.8522 34.2117 1.69717 40.9145 0.617408C41.0582 0.594203 41.2018 0.570999 41.3498 0.547091C43.519 0.214118 45.6633 0.0734719 47.858 0.0818401C48.0406 0.0822248 48.0406 0.0822248 48.2269 0.0826173C50.0273 0.0886962 51.786 0.129979 53.5575 0.476077C53.7436 0.511546 53.7436 0.511546 53.9334 0.54773C58.8198 1.50623 63.3318 3.50334 67.0996 6.73924C67.3152 6.92407 67.5351 7.10428 67.7592 7.279C68.0631 7.52246 68.2746 7.78905 68.515 8.09304C68.7151 8.29238 68.9162 8.49064 69.1181 8.68812C70.7239 10.3026 71.9273 12.1618 72.9781 14.1628C73.0522 14.301 73.1262 14.4393 73.2024 14.5817C74.2966 16.7483 75.03 19.1501 75.3906 21.5417C75.4113 21.6729 75.4113 21.6729 75.4324 21.8067C76.1131 26.3049 76.1131 26.3049 75.5113 27.4925C75.5894 27.4638 75.6674 27.4351 75.7479 27.4055C79.0919 26.1819 82.4605 25.3053 85.9657 24.656C87.3665 24.3953 88.7631 24.1145 90.1597 23.8328C90.2862 23.8073 90.4127 23.7818 90.543 23.7555C92.3862 23.3834 94.2286 23.0074 96.0703 22.6278C96.1749 22.6062 96.2795 22.5847 96.3873 22.5625C96.6886 22.5004 96.9899 22.4382 97.2911 22.3758C97.386 22.3562 97.4809 22.3366 97.5787 22.3164C98.0647 22.2153 98.5496 22.1106 99.0337 22.0005C99.1808 21.9672 99.1808 21.9672 99.331 21.9333C99.5161 21.8912 99.7011 21.8485 99.8858 21.805C100.375 21.6939 100.823 21.6391 101.325 21.6608C101.286 21.5495 101.247 21.4383 101.207 21.3237C100.148 17.6361 102.262 13.1446 104.015 9.98973C104.714 8.76472 105.505 7.64427 106.391 6.54584C106.478 6.43508 106.565 6.32431 106.654 6.21018C107.515 5.12189 108.436 4.08165 109.528 3.21342C109.7 3.07397 109.7 3.07397 109.877 2.93169C111.131 1.93722 112.445 1.16847 113.953 0.609969C114.09 0.558838 114.09 0.558838 114.231 0.506674C117.375 -0.601396 120.788 -0.173192 123.641 1.4282Z" fill="#5C5C5C"/>
<path d="M53.1956 7.85501C53.2844 7.87344 53.3732 7.89187 53.4646 7.91086C57.0905 8.69191 60.7516 10.5481 63.3281 13.2107C63.3281 13.2892 63.3281 13.3678 63.3281 13.4487C63.4077 13.4487 63.4873 13.4487 63.5693 13.4487C67.0838 17.1634 68.4131 21.9156 68.2737 26.8974C68.146 30.263 66.7982 33.6374 65.1375 36.5376C65.0698 36.6573 65.0698 36.6573 65.0008 36.7793C63.2505 39.8551 60.7328 42.7011 58.0206 44.9877C57.9077 45.0845 57.7948 45.1813 57.6785 45.2811C54.7725 47.7588 51.4742 50.012 48.0087 51.6525C48.0643 52.5248 48.2203 53.3202 48.4912 54.1519C48.5164 54.2293 48.5415 54.3067 48.5674 54.3865C49.3556 56.764 50.5104 58.9913 52.11 60.9357C52.1899 61.0362 52.2698 61.1367 52.3522 61.2402C53.8648 63.0418 56.0092 64.1952 58.3665 64.4202C60.5203 64.4972 62.4435 63.5597 64.0269 62.1919C64.6257 61.6566 64.6257 61.6566 64.8962 60.9357C64.8355 60.7038 64.8355 60.7038 64.7181 60.4731C64.6772 60.3827 64.6363 60.2923 64.5942 60.1991C64.5496 60.101 64.5049 60.0029 64.459 59.9018C62.595 55.5105 63.0497 50.4356 64.8048 46.0723C67.0773 40.6789 71.8422 36.891 77.2028 34.6887C77.9619 34.3823 78.7253 34.088 79.4919 33.8003C79.5768 33.7682 79.6618 33.7362 79.7494 33.7031C82.8948 32.5364 86.3243 31.9992 89.6188 31.4043C91.3752 31.0857 93.1205 30.7208 94.8635 30.3377C95.0118 30.3051 95.0118 30.3051 95.163 30.2719C95.6588 30.1628 96.1545 30.0533 96.65 29.9431C96.7882 29.9125 96.7882 29.9125 96.9292 29.8813C97.1037 29.8426 97.2782 29.8038 97.4526 29.7647C98.0409 29.6348 98.0409 29.6348 98.3093 29.6348C98.1351 31.0694 97.8355 32.4759 97.5441 33.8908C96.6667 38.1674 95.9036 42.4707 95.175 46.7743C95.093 47.2562 95.0073 47.7374 94.9189 48.2183C94.6417 49.7313 94.3966 51.2264 94.389 52.7683C94.3883 52.8814 94.3875 52.9945 94.3867 53.111C94.4083 54.2575 94.7134 55.2614 95.5651 56.0784C96.2838 56.5458 96.8947 56.7302 97.7571 56.6075C99.4476 56.1981 100.499 54.9041 101.446 53.5568C101.498 53.4842 101.55 53.4115 101.603 53.3367C102.374 52.2325 102.626 51.3604 102.632 50.0296C102.641 49.2635 102.764 48.5175 102.886 47.7622C102.906 47.6315 102.927 47.5007 102.948 47.366C103.046 46.7646 103.158 46.1763 103.316 45.5876C103.443 45.0712 103.521 44.5446 103.609 44.0207C103.739 43.2685 103.87 42.5191 104.039 41.7743C104.2 41.0611 104.329 40.3446 104.454 39.6246C104.722 38.0811 105.011 36.5426 105.328 35.0081C105.379 34.7642 105.429 34.5203 105.479 34.2764C105.517 34.0932 105.517 34.0932 105.555 33.9063C105.787 32.7647 105.986 31.618 106.176 30.4688C106.285 29.8214 106.402 29.1761 106.552 28.5367C106.588 28.3805 106.588 28.3805 106.625 28.2212C106.753 27.9686 106.753 27.9686 106.997 27.8288C107.487 27.6947 107.98 27.5911 108.479 27.4939C108.588 27.472 108.698 27.4502 108.811 27.4277C109.165 27.3571 109.52 27.2872 109.874 27.2173C110.358 27.1212 110.841 27.0247 111.325 26.9281C111.442 26.9046 111.56 26.8812 111.681 26.857C112.554 26.6827 113.423 26.5003 114.292 26.3098C115.154 26.1213 116.013 25.9546 116.886 25.8263C116.82 26.7145 116.696 27.5723 116.516 28.4446C116.462 28.7161 116.408 28.9876 116.354 29.2591C116.323 29.4107 116.293 29.5623 116.262 29.7185C116.083 30.6284 115.913 31.5403 115.743 32.4519C115.465 33.9337 115.186 35.4153 114.895 36.8947C114.582 38.4873 114.283 40.0826 113.984 41.6778C113.964 41.7816 113.945 41.8854 113.924 41.9923C113.885 42.2003 113.846 42.4084 113.808 42.6165C113.707 43.1535 113.603 43.6894 113.494 44.2247C113.169 45.82 113.169 45.82 113.093 47.4424C113.095 47.5516 113.097 47.6608 113.099 47.7733C113.136 49.0698 113.427 50.1294 114.232 51.1765C114.776 51.6654 115.319 51.7999 116.041 51.7716C117.31 51.5468 118.466 50.6797 119.207 49.6615C119.57 49.1423 119.918 48.6131 120.263 48.0821C120.343 47.9643 120.422 47.8464 120.504 47.7251C120.526 47.3385 120.525 46.9893 120.444 46.6098C119.865 43.6233 120.625 40.1393 122.298 37.6046C123.433 36.045 125.076 34.6032 127.006 34.0972C127.526 33.947 127.7 33.8687 127.991 33.3926C128.055 33.2227 128.115 33.0513 128.173 32.8789C128.207 32.7855 128.241 32.6922 128.276 32.5961C128.388 32.2894 128.495 31.9813 128.601 31.6729C128.678 31.4595 128.756 31.2463 128.834 31.0333C128.995 30.5918 129.154 30.1497 129.312 29.7071C129.652 28.7563 130.004 27.8103 130.362 26.8661C130.469 26.5823 130.574 26.2977 130.678 26.013C130.744 25.8387 130.81 25.6644 130.875 25.4902C130.917 25.3729 130.917 25.3729 130.96 25.2534C131.233 24.5436 131.69 24.1174 132.319 23.7031C132.408 23.6438 132.497 23.5845 132.588 23.5234C132.683 23.461 132.778 23.3987 132.876 23.3344C133.082 23.1972 133.288 23.0599 133.494 22.9225C133.6 22.852 133.705 22.7814 133.815 22.7088C134.332 22.3618 134.844 22.0079 135.356 21.6533C135.507 21.5493 135.507 21.5493 135.66 21.4431C135.956 21.2381 136.252 21.0329 136.547 20.8277C136.639 20.7639 136.731 20.7002 136.826 20.6345C137.983 19.831 139.136 19.0224 140.287 18.2093C140.752 18.3874 140.938 18.6403 141.214 19.0424C141.704 19.7266 142.236 20.3396 142.82 20.9467C142.928 21.0608 143.036 21.175 143.147 21.2926C144.314 22.5025 145.649 23.4304 147.082 24.3116C150.113 26.247 152.66 28.8195 154.279 32.0151C154.34 32.1343 154.4 32.2535 154.463 32.3763C155.892 35.4748 155.82 39.1638 154.693 42.3257C154.087 43.9097 153.203 45.3533 152.108 46.6539C152.024 46.7589 151.94 46.8638 151.853 46.9719C148.111 51.5957 142.257 54.0816 136.427 54.866C136.339 54.8781 136.251 54.8903 136.161 54.9029C132.097 55.3867 127.406 55.2091 124.033 52.6642C123.572 52.2966 123.122 51.9177 122.676 51.5335C122.646 51.6165 122.617 51.6995 122.586 51.785C121.138 55.0649 117.639 57.9655 114.352 59.2695C111.994 60.0916 109.535 60.1811 107.236 59.1505C105.898 58.4587 104.54 57.2819 103.858 55.9371C103.781 56.1076 103.781 56.1076 103.703 56.2816C102.377 59.1839 100.42 61.6071 97.3293 62.7656C94.8229 63.6501 92.1408 63.5796 89.7224 62.468C88.293 61.7131 87.2079 60.7964 86.2468 59.5075C86.1825 59.6343 86.1181 59.761 86.0518 59.8916C84.4408 63.009 82.1916 65.6299 78.7681 66.8865C75.9727 67.7156 72.985 67.6393 70.3817 66.2996C69.3095 65.7253 68.1127 65.0613 67.4293 64.0301C66.9926 64.1738 66.905 64.3197 66.6302 64.6773C66.12 65.3225 65.5836 65.932 65.0168 66.5294C64.9117 66.641 64.8066 66.7525 64.6983 66.8674C62.2481 69.4087 59.0225 71.3196 55.4875 71.8851C55.3987 71.9006 55.3099 71.9161 55.2184 71.9321C51.8102 72.4199 48.3768 71.4868 45.6104 69.5014C44.8747 68.9559 44.2005 68.3567 43.5456 67.7196C43.4442 67.6211 43.3428 67.5226 43.2384 67.4211C40.9189 65.0378 39.5465 61.9287 38.6646 58.7841C38.6058 58.5761 38.5441 58.3688 38.4822 58.1616C38.3183 57.6048 38.1899 57.1188 38.2381 56.5322C38.1585 56.5322 38.0789 56.5322 37.9968 56.5322C38.0015 56.7128 38.0015 56.7128 38.0063 56.8971C37.9971 57.3507 37.9379 57.7472 37.8461 58.1909C37.6811 59.0117 37.5377 59.8347 37.4013 60.6605C37.2484 61.5807 37.0845 62.4975 36.9037 63.4127C36.7498 64.1919 36.6103 64.9711 36.489 65.7558C36.3718 66.5131 36.2385 67.2653 36.0895 68.0171C35.8594 69.1822 35.6523 70.3508 35.4486 71.5206C35.4332 71.6089 35.4177 71.6972 35.4018 71.7882C35.2023 72.929 35.0194 74.0703 34.8606 75.2175C34.3088 75.4113 33.755 75.5463 33.1822 75.662C33.0449 75.6903 33.0449 75.6903 32.9048 75.7191C32.6069 75.7804 32.3088 75.8411 32.0108 75.9019C31.6988 75.9659 31.3868 76.0302 31.0748 76.0944C30.8656 76.1375 30.6565 76.1805 30.4473 76.2234C29.5503 76.4077 28.6544 76.5965 27.7588 76.787C26.2675 77.1037 24.7744 77.412 23.2806 77.7168C23.4268 76.3108 23.6793 74.9319 23.9454 73.5439C24.1348 72.5549 24.3138 71.5641 24.4926 70.5732C24.7703 69.035 25.0543 67.4984 25.358 65.9649C25.5455 65.0143 25.7187 64.0615 25.8891 63.1077C26.0833 62.0213 26.2855 60.9397 26.5375 59.8646C26.4314 59.8818 26.3254 59.899 26.2161 59.9167C23.7927 60.2706 21.2048 60.3269 18.8175 59.7456C18.6694 59.7138 18.5214 59.6821 18.3689 59.6493C14.9504 58.8522 11.8242 56.7248 9.92026 53.8023C8.66233 51.7386 8.00207 49.4867 7.59934 47.13C7.57778 47.0092 7.55621 46.8883 7.534 46.7638C7.34057 45.5824 7.30513 44.4186 7.30532 43.2248C7.30515 43.1218 7.30498 43.0188 7.30481 42.9126C7.30866 40.0266 7.71976 37.1631 8.56434 34.3954C8.59511 34.2943 8.62588 34.1932 8.65758 34.0891C10.0131 29.7196 12.3018 25.698 15.4758 22.3646C15.7186 22.1063 15.9526 21.8457 16.1849 21.5785C16.7301 20.961 17.3173 20.3862 17.9052 19.8086C18.0142 19.7007 18.1231 19.5927 18.2353 19.4815C18.8521 18.8739 19.4787 18.2883 20.1443 17.7333C20.2215 17.6682 20.2987 17.6032 20.3782 17.5362C25.1221 13.5598 30.5707 10.7292 36.5493 9.04516C36.7737 8.97981 36.7737 8.97981 37.0026 8.91313C42.2115 7.45836 47.8506 6.72223 53.1956 7.85501Z" fill="#FEFEFE"/>
<path d="M41.2085 17.6886C41.3203 17.6888 41.432 17.6889 41.5471 17.689C45.4937 17.7028 49.3649 18.6072 52.3513 21.3037C52.5164 21.4501 52.5164 21.4501 52.6849 21.5994C54.4543 23.2477 55.5039 25.2931 56.0906 27.6115C56.118 27.7086 56.1454 27.8057 56.1736 27.9058C56.9951 31.1873 55.8589 34.9543 54.1597 37.7724C51.5318 41.7583 47.4249 44.7478 42.8219 46.1778C42.7025 46.1778 42.583 46.1778 42.46 46.1778C42.4574 46.0045 42.4574 46.0045 42.4547 45.8276C42.4475 45.3881 42.4382 44.9487 42.4284 44.5093C42.4244 44.3211 42.421 44.1329 42.4182 43.9447C42.4027 42.9242 42.3521 41.9275 42.174 40.9207C42.1599 40.8406 42.1457 40.7604 42.1312 40.6778C41.7306 38.6042 40.5804 36.5205 38.8818 35.2206C38.1151 34.7159 37.2956 34.3436 36.4288 34.0383C36.3075 33.9946 36.1862 33.9509 36.0612 33.9058C35.3957 33.7251 34.7012 33.7549 34.0163 33.7556C33.8715 33.7556 33.7267 33.7555 33.5776 33.7554C32.4844 33.7688 31.5434 33.9015 30.5181 34.2763C30.3987 34.3156 30.2793 34.3549 30.1563 34.3954C30.192 34.5469 30.2278 34.6985 30.2646 34.8547C30.9898 38.0827 31.0505 41.3298 29.2817 44.2438C28.4695 45.4249 27.5634 46.3194 26.2963 47.0109C26.2188 47.057 26.1414 47.103 26.0616 47.1504C24.2519 48.1553 21.8244 48.2597 19.8277 47.8366C17.7752 47.1972 16.1472 46.0096 15.0781 44.1546C14.8422 43.648 14.6487 43.1376 14.475 42.6074C14.4253 42.4626 14.3755 42.3177 14.3242 42.1685C13.4152 38.2074 14.617 33.6929 16.7593 30.3042C17.5796 29.041 18.4915 27.8654 19.5413 26.7784C19.6083 26.7084 19.6753 26.6384 19.7443 26.5663C20.9127 25.3531 22.139 24.2956 23.5219 23.327C23.5969 23.2739 23.6719 23.2209 23.7492 23.1663C27.2354 20.7242 31.2549 19.1605 35.411 18.2465C35.5192 18.2224 35.6274 18.1983 35.7388 18.1734C37.5616 17.7869 39.3504 17.6842 41.2085 17.6886Z" fill="#5C5C5C"/>
<path d="M182.619 13.1363C182.785 13.2773 182.948 13.4211 183.109 13.5677C183.199 13.6443 183.288 13.7209 183.381 13.7997C184.825 15.1064 185.541 16.8219 185.659 18.7263C185.811 22.4025 184.26 25.4997 181.857 28.2215C179.557 30.669 176.764 32.2645 173.579 33.3242C173.436 33.3721 173.292 33.42 173.144 33.4693C171.809 33.8929 170.479 34.1576 169.086 34.2987C168.939 34.3137 168.939 34.3137 168.788 34.329C168.092 34.3931 167.403 34.4061 166.704 34.3954C167.232 37.1517 167.232 37.1517 168.996 39.275C169.385 39.5091 169.782 39.6963 170.202 39.8701C170.288 39.9067 170.374 39.9434 170.463 39.9812C172.682 40.866 175.206 40.2548 177.32 39.3787C179.635 38.3805 181.616 36.8332 183.037 34.7589C183.101 34.6782 183.164 34.5975 183.229 34.5144C183.309 34.5144 183.389 34.5144 183.471 34.5144C183.48 34.5887 183.49 34.6631 183.5 34.7396C183.545 35.0812 183.591 35.4226 183.636 35.764C183.652 35.881 183.667 35.9979 183.683 36.1183C183.753 36.6393 183.828 37.1435 183.973 37.6497C184.214 38.6905 183.642 39.4807 183.109 40.3461C182.815 40.7705 182.493 41.1546 182.144 41.5363C182.089 41.5958 182.035 41.6553 181.979 41.7166C180.384 43.4361 178.469 44.5764 176.354 45.5828C176.166 45.6725 176.166 45.6725 175.974 45.7641C172.905 47.065 169.022 47.4452 165.818 46.4038C165.461 46.2631 165.119 46.1073 164.774 45.9398C164.594 45.8588 164.594 45.8588 164.41 45.7762C161.222 44.2937 159.088 41.5913 157.861 38.3866C156.077 33.3866 157.155 27.5173 159.398 22.8435C159.875 21.8778 160.375 20.9712 161.034 20.1136C161.084 20.0482 161.134 19.9829 161.185 19.9155C162.184 18.6075 163.239 17.3417 164.532 16.3051C164.71 16.1587 164.71 16.1587 164.892 16.0094C167.262 14.0886 170.005 12.6651 172.976 11.9015C173.058 11.8804 173.141 11.8592 173.225 11.8374C176.245 11.1015 180.045 11.2408 182.619 13.1363Z" fill="#FDFDFD"/>
<path d="M134.979 28.4446C135.475 28.7662 135.956 29.1019 136.434 29.4488C137.155 29.9637 137.9 30.4324 138.658 30.8918C138.768 30.958 138.877 31.0242 138.989 31.0923C139.385 31.3321 139.781 31.5716 140.178 31.8101C142.774 33.3769 145.012 35.5136 145.841 38.4996C146.555 41.4786 145.96 44.1292 144.448 46.7269C142.996 49.0183 140.714 50.4424 138.101 51.1095C136.09 51.5655 133.98 51.4844 132.16 50.4847C130.952 49.7077 130.218 48.6745 129.868 47.2787C129.602 45.7893 129.968 44.4816 130.758 43.2024C131.629 42.0268 132.68 41.3911 134.121 41.1118C135.315 40.948 136.491 41.0416 137.633 41.4172C138.06 39.8099 138.135 37.937 137.334 36.4432C136.459 34.9813 135.245 34.265 133.653 33.6812C133.412 33.6365 133.171 33.5956 132.929 33.5622C133.196 32.5622 133.584 31.6164 133.981 30.6617C134.091 30.398 134.2 30.1339 134.308 29.8697C134.378 29.702 134.447 29.5342 134.517 29.3665C134.549 29.2875 134.582 29.2086 134.615 29.1272C134.845 28.5774 134.845 28.5774 134.979 28.4446Z" fill="#5C5C5C"/>
<path d="M85.689 37.8393C85.8739 37.8401 85.8739 37.8401 86.0626 37.8409C86.3653 37.8423 86.668 37.8443 86.9706 37.8468C86.8751 38.6839 86.7297 39.5096 86.5786 40.3386C86.5517 40.4864 86.5249 40.6341 86.4973 40.7864C86.306 41.8301 86.1012 42.8705 85.8865 43.9097C85.7336 44.6527 85.5876 45.3966 85.4477 46.142C83.7235 55.3234 83.7235 55.3234 81.1806 57.8413C81.1068 57.9169 81.0329 57.9926 80.9568 58.0705C79.8649 59.1065 78.4535 59.679 76.9474 59.6591C75.9185 59.5635 75.1127 59.059 74.4256 58.3173C72.8579 56.3333 72.9555 53.7341 73.2269 51.3624C73.6694 47.8996 74.9201 44.5031 77.3206 41.8933C77.4055 41.8008 77.4055 41.8008 77.492 41.7064C79.6364 39.3997 82.4722 37.8127 85.689 37.8393Z" fill="#5C5C5C"/>
<path d="M120.062 7.75458C120.803 8.26051 121.369 8.80691 121.711 9.64022C121.943 11.5423 121.353 12.9338 120.181 14.442C117.98 17.1578 115.001 19.3616 111.699 20.5896C111.591 20.63 111.484 20.6703 111.373 20.7119C110.6 20.9721 109.677 21.148 108.895 20.8402C108.573 20.6401 108.534 20.4786 108.442 20.1135C108.193 18.2565 109.08 16.3778 109.889 14.7579C109.954 14.627 109.954 14.627 110.02 14.4936C111.469 11.5914 113.622 8.59608 116.762 7.35616C117.922 7.05015 119.025 7.16971 120.062 7.75458Z" fill="#FDFDFD"/>
<path d="M177.495 18.5264C178.125 19.0652 178.492 19.7455 178.566 20.5641C178.61 22.6112 177.957 24.1504 176.53 25.6473C174.975 27.2064 173.36 28.1834 171.288 28.9207C171.145 28.9752 171.145 28.9752 171.001 29.0309C169.663 29.5191 168.241 29.6919 166.824 29.6348C167.11 26.0406 168.514 22.3028 171.318 19.8978C171.831 19.5037 172.368 19.1778 172.939 18.8713C173.012 18.832 173.085 18.7927 173.16 18.7522C174.363 18.138 176.281 17.7808 177.495 18.5264Z" fill="#5C5C5C"/>
</g>
<defs>
<clipPath id="clip0_96_194">
<rect width="193" height="87" fill="white"/>
</clipPath>
</defs>
</svg>
