<svg width="193" height="57" viewBox="0 0 193 57" fill="none" xmlns="http://www.w3.org/2000/svg">
<path fill-rule="evenodd" clip-rule="evenodd" d="M119.006 0.691237C116.604 1.90064 114.411 5.24504 113.854 8.54687C111.911 20.0724 121.337 27.9674 127.318 19.8238C129.049 17.4682 129.741 15.1395 129.724 11.7246C129.701 6.89115 128.257 3.45565 125.373 1.3765C123.186 -0.200026 121.201 -0.413797 119.006 0.691237ZM32.3887 4.36889C30.8426 4.84587 29.3949 5.34071 29.1716 5.46888C28.9483 5.5966 34.0497 5.69502 40.5081 5.68723L52.2506 5.67304L49.8378 4.75432C46.2272 3.37921 36.3085 3.15994 32.3887 4.36889ZM5.82554 6.11707C3.73473 10.805 2.2867 18.2491 2.01935 25.6863C1.80123 31.7425 1.44735 33.9796 0.604781 34.6209C-0.200466 35.2343 -0.201753 35.8459 0.601886 36.2084C0.948049 36.365 1.96305 37.8014 2.85741 39.4004C4.31284 42.0037 4.44925 42.4358 4.1581 43.5257C3.97923 44.195 3.83285 44.8326 3.83285 44.942C3.83285 45.0515 4.9138 45.1412 6.23476 45.1412C7.55571 45.1412 9.11215 45.4259 9.69317 45.7743C13.3575 47.9697 13.4562 47.8264 8.2564 47.8584C4.38426 47.8822 3.51113 48.0072 3.51113 48.5368C3.51113 48.8939 3.42331 49.5119 3.31586 49.9101C3.14181 50.5556 3.81419 50.6343 9.49113 50.6343H15.862L16.8262 51.8931L17.79 53.152L17.2383 51.8931L16.6866 50.6343H41.9697H67.2531L67.1511 49.3755L67.0494 48.1166L41.0174 47.8877C20.5931 47.7083 14.9567 47.5357 14.8515 47.0867C14.7534 46.6683 15.3083 46.5048 16.9159 46.4792L19.1142 46.444L17.8274 45.8406C17.1196 45.5088 16.6853 45.2135 16.8622 45.1851C17.0392 45.1563 28.4021 45.0835 42.1128 45.0226L67.0417 44.9123L67.0456 43.7679L67.0494 42.6235L44.8837 42.3946L22.7184 42.1657L24.9375 40.8565C27.6631 39.2489 26.7108 39.312 49.1139 39.2448L67.2103 39.1903V38.0459V36.9015L48.4705 36.8781C38.1635 36.8653 26.4734 36.869 22.4922 36.8859L15.2537 36.9175L13.4842 35.4215L11.7148 33.926L39.4625 33.8088L67.2103 33.6921V32.55V31.4084H38.4598H9.70925L8.87377 29.6121C8.41436 28.6243 7.71335 26.5131 7.31603 24.9201C6.68129 22.3772 6.59765 21.1875 6.62757 15.1578C6.64655 11.3813 6.8029 7.31274 6.97534 6.11707C7.14778 4.9214 7.1777 3.94271 7.04193 3.94271C6.90617 3.94271 6.35894 4.9214 5.82554 6.11707ZM21.9292 10.1527C21.177 10.794 20.5619 11.3584 20.5619 11.4074C20.5619 11.4559 29.5377 11.4958 40.5081 11.4958C51.4785 11.4958 60.4543 11.3822 60.4543 11.2435C60.4543 11.1048 59.799 10.5386 58.9979 9.98469C57.5531 8.98586 57.4061 8.97808 40.419 8.9822L23.2965 8.98677L21.9292 10.1527ZM16.3044 15.8312L15.2537 17.1908L40.6567 17.2045L66.0598 17.2178L64.9461 15.8633L63.8323 14.5083L40.5937 14.49L17.3551 14.4712L16.3044 15.8312ZM170.551 18.3077C158.69 24.7278 157.991 47.3782 169.415 55.0975C176.396 59.8151 184.577 55.4701 187.937 45.2597C189.82 39.5382 189.469 31.8194 187.081 26.4513C185.744 23.4447 183.581 20.7865 181.1 19.1042C178.939 17.6385 178.376 17.4572 175.631 17.3423C173.043 17.2338 172.26 17.3826 170.551 18.3077ZM188.642 18.7993C187.046 21.0698 188.177 24.9997 190.426 24.9997C191.749 24.9997 193 23.2195 193 21.3376C193 19.4558 191.749 17.6755 190.426 17.6755C189.8 17.6755 189.14 18.0907 188.642 18.7993ZM133.529 19.2928C132.364 20.6876 132.039 21.9918 131.24 28.486C130.902 31.2262 130.116 37.5053 129.493 42.4399C128.226 52.4754 128.276 53.9787 129.925 55.65C131.034 56.7733 133.043 56.8809 134.057 55.8706C135.285 54.6466 135.694 52.7995 136.425 45.176C136.814 41.1143 137.23 37.9516 137.349 38.1475C137.468 38.3434 138.162 41.8764 138.891 45.999C139.62 50.1216 140.447 53.9929 140.728 54.6026C141.36 55.975 142.44 56.5852 144.238 56.5852C146.879 56.5852 147.409 55.3076 149.543 43.8219C150.076 40.9563 150.58 38.5151 150.663 38.3965C150.852 38.1278 151.044 39.7497 151.677 46.9273C152.201 52.8801 152.634 54.6882 153.821 55.8706C155.277 57.3222 158.064 56.3989 158.8 54.2209C159.494 52.1692 159.523 51.5105 159.077 47.7664C158.83 45.6932 158.093 39.2786 157.439 33.5122C156.154 22.1762 155.825 20.5521 154.52 19.0909C153.305 17.7314 150.016 17.7305 148.801 19.0891C147.517 20.5269 147.193 21.7473 145.68 30.8362C144.915 35.4307 144.21 39.1884 144.114 39.1862C144.018 39.1839 143.38 35.8363 142.698 31.7476C140.696 19.7574 139.928 18.1333 136.258 18.1333C134.844 18.1333 134.307 18.3613 133.529 19.2928ZM191.888 19.2571C192.323 19.8751 192.678 20.8112 192.678 21.3376C192.678 22.6317 191.278 24.5419 190.33 24.5419C189.421 24.5419 188.63 23.4213 188.329 21.7038C188.16 20.7389 188.292 20.2124 188.933 19.3006C189.965 17.8325 190.878 17.8193 191.888 19.2571ZM77.0225 19.2411C75.1305 20.445 75.1016 20.6876 74.9935 36.2148C74.8863 51.5768 75.0462 53.6381 76.4676 55.2293C77.7287 56.6406 79.8195 56.4442 81.1192 54.7921C82.1474 53.4857 82.1722 53.3635 82.2816 49.0701C82.3427 46.6573 82.4874 44.6962 82.6033 44.7123C82.7188 44.7283 84.0439 46.9351 85.5479 49.6167C89.4866 56.6392 90.9685 57.7712 93.3018 55.5397C94.6881 54.214 95.1797 51.8657 94.5362 49.6428C94.293 48.8033 93.0573 46.4554 91.7898 44.4248L89.485 40.7329L90.8877 39.6741C92.3151 38.5966 93.4611 36.7793 94.1647 34.4767C94.754 32.5477 94.6398 27.8241 93.9517 25.6685C93.0821 22.9448 90.7516 20.2358 88.5067 19.3395C86.1087 18.3823 78.4751 18.3169 77.0225 19.2411ZM99.4816 19.4686C98.7973 20.0728 98.3428 20.9536 98.1163 22.1149C97.9123 23.1609 97.7762 29.4276 97.7752 37.817C97.7736 56.9523 97.4037 56.1105 105.816 56.1201C111.984 56.127 113.051 55.6935 113.795 52.8787C114.169 51.4624 114.161 50.9964 113.734 49.5435C113.051 47.2189 111.736 46.5145 108.078 46.5145H105.172V44.5191V42.5237L107.827 42.2811C109.286 42.1474 110.89 41.7693 111.39 41.4406C113.067 40.3379 113.745 36.8076 112.69 34.6662C111.899 33.059 110.294 32.3239 107.577 32.3239H105.135L105.234 30.3784L105.333 28.4329L108.657 28.204C111.921 27.9793 111.998 27.9481 112.92 26.4801C114.188 24.4605 114.188 22.3351 112.921 20.315L111.983 18.8199L106.245 18.6913C100.996 18.5737 100.42 18.6396 99.4816 19.4686ZM189.676 19.3541C189.558 19.5217 189.481 20.6034 189.505 21.7574C189.529 22.9114 189.611 23.392 189.688 22.8253C189.765 22.2586 189.975 21.7954 190.156 21.7954C190.336 21.7954 190.769 22.2586 191.117 22.8253L191.749 23.8553L191.387 22.796C191.115 21.9995 191.12 21.5738 191.408 21.0794C192.095 19.903 190.445 18.2601 189.676 19.3541ZM190.926 20.0042C191.045 20.2779 191.016 20.6812 190.862 20.9005C190.482 21.442 189.644 20.6542 189.922 20.0156C190.202 19.3683 190.648 19.3633 190.926 20.0042ZM12.2518 21.3637L11.5022 22.7159L39.2756 22.5992L67.0494 22.482L67.0456 21.3376L67.0417 20.1932L40.0217 20.1021L13.0017 20.0115L12.2518 21.3637ZM117.719 38.1448C117.719 49.4025 117.8 51.7567 118.228 53.022C119.317 56.2391 121.644 57.367 123.51 55.5832C125.684 53.5054 125.761 52.9053 125.761 38.0459L125.762 24.7708H121.741H117.719V38.1448ZM9.35408 26.8285L8.63924 28.204H37.9357H67.2322L67.1138 26.9452L66.9954 25.6863L38.5322 25.5696L10.0689 25.4524L9.35408 26.8285ZM86.6643 28.1889C88.1165 30.4722 86.902 33.2325 84.2878 33.59L82.6525 33.8134V30.551V27.2885H84.3721C85.6734 27.2885 86.2309 27.5073 86.6643 28.1889ZM177.648 28.8206C178.218 29.1598 179.216 30.2768 179.867 31.3026C182.505 35.4632 181.62 42.2175 178.121 44.628C176.629 45.6557 174.297 45.9011 172.95 45.1718C170.249 43.7107 168.476 38.885 169.205 34.9825C170.206 29.6332 174.164 26.7447 177.648 28.8206ZM3.18942 54.983V56.1274H35.1999H67.2103V54.983V53.8386H35.1999H3.18942V54.983Z" fill="#5C5C5C"/>
</svg>
