<svg width="198" height="62" viewBox="0 0 198 62" fill="none" xmlns="http://www.w3.org/2000/svg">
<path d="M128.122 20.437C132.86 20.437 137.597 20.437 142.477 20.437C142.477 25.6354 142.477 30.8337 142.477 36.1896C145.935 36.1896 149.393 36.1896 152.955 36.1896C152.955 30.9912 152.955 25.7929 152.955 20.437C161.558 20.437 170.161 20.437 179.025 20.437C179.025 22.9377 179.025 25.4383 179.025 28.0148C178.765 28.063 178.585 28.0664 178.312 28.0662C178.216 28.0663 178.119 28.0664 178.019 28.0664C177.913 28.0663 177.806 28.0661 177.697 28.0659C177.584 28.0659 177.471 28.0659 177.358 28.0659C177.051 28.066 176.744 28.0657 176.437 28.0654C176.116 28.0651 175.795 28.0651 175.475 28.065C174.867 28.0649 174.26 28.0645 173.652 28.064C172.961 28.0635 172.269 28.0633 171.578 28.063C170.155 28.0625 168.733 28.0617 167.31 28.0607C167.31 28.5002 167.31 28.9397 167.31 29.3926C170.631 29.3926 173.953 29.3926 177.375 29.3926C177.377 30.2858 177.378 31.179 177.38 32.0993C177.381 32.3818 177.382 32.6643 177.382 32.9554C177.383 33.2992 177.383 33.2992 177.383 33.4599C177.383 33.5726 177.383 33.6854 177.384 33.7981C177.384 33.9685 177.384 34.1388 177.384 34.3091C177.385 34.385 177.385 34.385 177.385 34.4625C177.385 34.5081 177.385 34.5536 177.385 34.6006C177.385 34.6405 177.385 34.6804 177.385 34.7215C177.375 34.8118 177.375 34.8118 177.292 34.8578C177.163 34.8622 177.033 34.8633 176.904 34.8633C176.819 34.8633 176.735 34.8634 176.649 34.8635C176.556 34.8633 176.463 34.8631 176.367 34.863C176.269 34.863 176.172 34.863 176.072 34.863C175.804 34.863 175.536 34.8627 175.268 34.8624C174.989 34.8621 174.709 34.8621 174.43 34.862C173.9 34.8619 173.37 34.8615 172.841 34.8611C172.238 34.8605 171.635 34.8603 171.032 34.8601C169.791 34.8596 168.551 34.8587 167.31 34.8578C167.31 35.2973 167.31 35.7368 167.31 36.1896C171.176 36.1896 175.042 36.1896 179.025 36.1896C179.025 38.1901 179.025 40.1907 179.025 42.2518C162.227 42.2518 145.429 42.2518 128.122 42.2518C128.122 35.0529 128.122 27.854 128.122 20.437Z" fill="#5C5C5C"/>
<path d="M9.23012 45.415C9.38976 45.4148 9.38976 45.4148 9.55264 45.4146C9.67262 45.4148 9.79261 45.4149 9.91259 45.415C10.0393 45.4149 10.166 45.4149 10.2927 45.4148C10.6448 45.4146 10.9968 45.4147 11.3489 45.4149C11.7318 45.415 12.1148 45.4149 12.4978 45.4148C13.1729 45.4146 13.8479 45.4146 14.523 45.4147C15.5336 45.4149 16.5442 45.4148 17.5549 45.4147C19.2768 45.4145 20.9988 45.4145 22.7208 45.4146C24.467 45.4148 26.2132 45.4148 27.9594 45.4147C28.0144 45.4147 28.0694 45.4147 28.126 45.4147C28.63 45.4147 29.134 45.4146 29.6381 45.4146C30.9021 45.4145 32.1662 45.4145 33.4302 45.4144C33.4882 45.4144 33.5461 45.4144 33.6058 45.4144C36.4642 45.4143 39.3225 45.4144 42.1809 45.4145C42.3062 45.4145 42.4315 45.4145 42.5567 45.4145C42.6188 45.4145 42.6809 45.4145 42.7449 45.4145C43.5635 45.4145 44.3822 45.4145 45.2009 45.4146C45.2947 45.4146 45.2947 45.4146 45.3905 45.4146C48.2876 45.4147 51.1846 45.4146 54.0817 45.4146C54.3976 45.4146 54.7134 45.4146 55.0293 45.4146C55.9812 45.4146 56.9332 45.4145 57.8852 45.4145C60.7883 45.4145 63.6914 45.4145 66.5945 45.4145C66.6915 45.4145 66.6915 45.4145 66.7904 45.4144C70.9784 45.4144 75.1663 45.4145 79.3542 45.4146C79.4211 45.4146 79.488 45.4146 79.5569 45.4146C81.7971 45.4146 84.0374 45.4147 86.2776 45.4148C93.0526 45.4149 99.8276 45.415 111.927 45.4148C114.166 45.4147 116.406 45.4146 118.646 45.4146C118.746 45.4146 118.746 45.4146 118.848 45.4146C123.034 45.4145 127.22 45.4144 131.405 45.4145C131.502 45.4145 131.502 45.4145 131.601 45.4145C134.503 45.4145 137.404 45.4145 140.306 45.4145C141.257 45.4146 142.209 45.4146 143.16 45.4146C143.476 45.4146 143.792 45.4146 144.107 45.4146C147.005 45.4146 149.902 45.4146 152.799 45.4146C152.862 45.4146 152.924 45.4146 152.989 45.4146C153.807 45.4145 154.625 45.4145 155.443 45.4145C155.536 45.4145 155.536 45.4145 155.631 45.4145C155.756 45.4145 155.882 45.4145 156.007 45.4145C158.861 45.4144 161.715 45.4143 164.57 45.4144C164.657 45.4144 164.657 45.4144 164.745 45.4144C166.007 45.4145 167.269 45.4145 168.531 45.4146C169.034 45.4146 169.537 45.4147 170.041 45.4147C170.096 45.4147 170.15 45.4147 170.207 45.4147C172.004 45.4148 173.802 45.4147 175.599 45.4146C177.309 45.4145 179.019 45.4145 180.729 45.4148C181.734 45.4149 182.738 45.4149 183.742 45.4147C184.408 45.4146 185.073 45.4146 185.738 45.4148C186.117 45.4149 186.495 45.415 186.873 45.4148C187.215 45.4146 187.558 45.4147 187.9 45.4149C188.024 45.415 188.147 45.4149 188.271 45.4148C188.437 45.4147 188.604 45.4148 188.77 45.415C188.862 45.415 188.955 45.415 189.05 45.415C189.255 45.4207 189.255 45.4207 189.337 45.4667C189.337 46.7246 189.337 47.9825 189.337 49.2785C129.715 49.2785 70.092 49.2785 8.66251 49.2785C8.66251 45.415 8.66251 45.415 9.23012 45.415Z" fill="#5C5C5C"/>
<path d="M8.66251 12.7215C68.2853 12.7215 127.908 12.7215 189.337 12.7215C189.337 13.9794 189.337 15.2373 189.337 16.5333C189.19 16.6156 188.969 16.585 188.77 16.585C188.61 16.5852 188.61 16.5852 188.447 16.5854C188.327 16.5853 188.207 16.5851 188.087 16.585C187.961 16.5851 187.834 16.5851 187.707 16.5852C187.355 16.5854 187.003 16.5853 186.651 16.5851C186.268 16.585 185.885 16.5851 185.502 16.5853C184.827 16.5854 184.152 16.5854 183.477 16.5853C182.466 16.5851 181.456 16.5852 180.445 16.5853C178.723 16.5855 177.001 16.5855 175.279 16.5854C173.533 16.5852 171.787 16.5852 170.041 16.5853C169.986 16.5853 169.931 16.5853 169.874 16.5853C169.37 16.5853 168.866 16.5854 168.362 16.5854C167.098 16.5855 165.834 16.5855 164.57 16.5856C164.483 16.5856 164.483 16.5856 164.394 16.5856C161.536 16.5857 158.677 16.5856 155.819 16.5855C155.694 16.5855 155.569 16.5855 155.443 16.5855C155.381 16.5855 155.319 16.5855 155.255 16.5855C154.436 16.5855 153.618 16.5855 152.799 16.5854C152.737 16.5854 152.674 16.5854 152.61 16.5854C149.712 16.5854 146.815 16.5854 143.918 16.5854C143.602 16.5854 143.287 16.5854 142.971 16.5854C142.019 16.5854 141.067 16.5855 140.115 16.5855C137.212 16.5855 134.309 16.5855 131.405 16.5856C131.309 16.5856 131.309 16.5856 131.21 16.5856C127.022 16.5856 122.834 16.5855 118.646 16.5854C118.579 16.5854 118.512 16.5854 118.443 16.5854C116.203 16.5854 113.963 16.5853 111.722 16.5853C104.947 16.5851 98.1724 16.585 86.0732 16.5853C83.8336 16.5853 81.5939 16.5854 79.3542 16.5854C79.254 16.5854 79.254 16.5854 79.1516 16.5854C74.9659 16.5855 70.7802 16.5856 66.5945 16.5856C66.4976 16.5856 66.4976 16.5856 66.3987 16.5856C63.4972 16.5855 60.5957 16.5855 57.6942 16.5855C56.7427 16.5855 55.7911 16.5854 54.8396 16.5854C54.5239 16.5854 54.2082 16.5854 53.8925 16.5854C50.9953 16.5854 48.0981 16.5854 45.2009 16.5854C45.1383 16.5854 45.0758 16.5854 45.0114 16.5854C44.1932 16.5855 43.3749 16.5855 42.5567 16.5855C42.4637 16.5855 42.4637 16.5855 42.3687 16.5855C42.2436 16.5855 42.1184 16.5855 41.9933 16.5855C39.1389 16.5856 36.2846 16.5857 33.4302 16.5856C33.3434 16.5856 33.3434 16.5856 33.2549 16.5856C31.9929 16.5855 30.731 16.5855 29.469 16.5854C28.9658 16.5854 28.4626 16.5853 27.9594 16.5853C27.9045 16.5853 27.8496 16.5853 27.793 16.5853C25.9956 16.5852 24.1982 16.5853 22.4008 16.5854C20.6908 16.5855 18.9809 16.5855 17.2709 16.5853C16.2665 16.5851 15.262 16.5851 14.2576 16.5853C13.5923 16.5854 12.927 16.5854 12.2618 16.5852C11.8835 16.5851 11.5052 16.5851 11.1269 16.5852C10.7846 16.5854 10.4422 16.5853 10.0999 16.5851C9.97626 16.5851 9.85264 16.5851 9.72901 16.5852C9.56272 16.5854 9.39642 16.5852 9.23012 16.585C9.1377 16.585 9.04528 16.585 8.95006 16.585C8.74501 16.5793 8.74501 16.5793 8.66251 16.5333C8.66251 15.2754 8.66251 14.0175 8.66251 12.7215Z" fill="#5C5C5C"/>
<path d="M52.635 20.437C57.3721 20.437 62.1093 20.437 66.99 20.437C66.99 22.9377 66.99 25.4383 66.99 28.0148C68.2423 28.0148 69.4947 28.0148 70.785 28.0148C70.785 25.5141 70.785 23.0135 70.785 20.437C75.5221 20.437 80.2593 20.437 85.14 20.437C85.14 27.6359 85.14 34.8348 85.14 42.2518C80.4028 42.2518 75.6657 42.2518 70.785 42.2518C70.785 40.2664 70.785 38.2811 70.785 36.2355C69.5326 36.2355 68.2803 36.2355 66.99 36.2355C66.99 38.2209 66.99 40.2063 66.99 42.2518C62.2528 42.2518 57.5157 42.2518 52.635 42.2518C52.635 35.0529 52.635 27.854 52.635 20.437Z" fill="#5C5C5C"/>
<path d="M89.595 20.437C94.3322 20.437 99.0693 20.437 103.95 20.437C103.951 21.3887 103.952 22.3405 103.954 23.321C103.955 23.9234 103.957 24.5257 103.959 25.1281C103.96 25.4445 103.962 25.761 103.963 26.0774C103.963 26.1171 103.963 26.1567 103.963 26.1976C103.965 26.8372 103.966 27.4769 103.966 28.1166C103.966 28.7734 103.968 29.4302 103.972 30.087C103.973 30.492 103.974 30.8971 103.973 31.3021C103.973 31.5802 103.974 31.8582 103.976 32.1362C103.978 32.2965 103.978 32.4567 103.977 32.6169C103.976 32.7911 103.978 32.9653 103.98 33.1395C103.979 33.1895 103.978 33.2395 103.977 33.2911C103.988 33.7351 104.207 34.1312 104.749 34.4645C105.386 34.7869 106.097 34.9209 106.947 34.9132C107.672 34.882 108.285 34.7186 108.818 34.4444C109.374 34.0397 109.502 33.6714 109.5 33.1726C109.501 33.0909 109.501 33.0909 109.502 33.0076C109.503 32.8569 109.504 32.7062 109.504 32.5555C109.504 32.3929 109.505 32.2302 109.506 32.0675C109.508 31.7858 109.509 31.5041 109.51 31.2224C109.511 30.8152 109.514 30.4079 109.516 30.0006C109.52 29.3398 109.523 28.679 109.525 28.0182C109.528 27.3763 109.531 26.7344 109.534 26.0925C109.534 26.0526 109.534 26.0126 109.534 25.9714C109.536 25.6588 109.538 25.3461 109.539 25.0335C109.547 23.5013 109.554 21.9692 109.56 20.437C114.297 20.437 119.034 20.437 123.915 20.437C123.925 23.8557 123.925 23.8557 123.927 25.2875C123.928 25.6152 123.928 25.9429 123.929 26.2705C123.929 26.3321 123.929 26.3321 123.929 26.395C123.93 27.0562 123.932 27.7174 123.934 28.3786C123.936 29.0582 123.938 29.7378 123.938 30.4174C123.939 30.836 123.94 31.2547 123.942 31.6734C123.943 31.9612 123.943 32.2491 123.943 32.537C123.943 32.7026 123.943 32.8682 123.945 33.0338C123.95 33.761 123.907 34.4631 123.668 35.1792C123.651 35.23 123.634 35.2809 123.617 35.3332C123.579 35.4426 123.535 35.5504 123.487 35.6586C123.461 35.7169 123.461 35.7169 123.435 35.7764C123.097 36.5159 122.591 37.2196 121.935 37.8889C121.909 37.9163 121.882 37.9437 121.855 37.972C121.445 38.3975 120.971 38.7893 120.45 39.1748C120.398 39.2138 120.345 39.2528 120.291 39.293C117.545 41.2691 113.43 42.5447 108.996 42.8799C104.524 43.1868 99.9571 42.5295 96.36 41.0118C93.0642 39.5652 90.7171 37.555 89.9044 35.251C89.8919 35.2161 89.8795 35.1811 89.8666 35.1452C89.5916 34.3031 89.5711 33.4602 89.5759 32.607C89.5766 32.4431 89.5763 32.2792 89.5762 32.1153C89.5761 31.8324 89.5766 31.5496 89.5776 31.2667C89.5789 30.8578 89.5793 30.4488 89.5795 30.0399C89.5799 29.3761 89.581 28.7123 89.5826 28.0486C89.5841 27.4044 89.5853 26.7602 89.586 26.1161C89.586 26.0759 89.586 26.0356 89.5861 25.9942C89.5864 25.6796 89.5868 25.365 89.5871 25.0503C89.5886 23.5126 89.5919 21.9748 89.595 20.437Z" fill="#5C5C5C"/>
<path d="M18.0675 20.437C28.6036 20.437 39.1397 20.437 49.995 20.437C49.9967 21.9137 49.9984 23.3905 50.0002 24.9119C50.0009 25.379 50.0017 25.8462 50.0024 26.3274C50.0028 26.8957 50.0028 26.8957 50.0029 27.1613C50.003 27.3477 50.0033 27.5342 50.0037 27.7206C50.0043 27.9579 50.0045 28.1952 50.0043 28.4325C50.0044 28.5199 50.0045 28.6073 50.0048 28.6947C50.0052 28.8121 50.0052 28.9296 50.0049 29.0471C50.0052 29.0818 50.0054 29.1165 50.0057 29.1522C50.0044 29.3873 50.0044 29.3873 49.9125 29.4385C47.0267 29.4385 44.1408 29.4385 41.1675 29.4385C41.1675 33.6669 41.1675 37.8953 41.1675 42.2518C36.4304 42.2518 31.6932 42.2518 26.8125 42.2518C26.8125 38.0234 26.8125 33.795 26.8125 29.4385C23.9267 29.4385 21.0408 29.4385 18.0675 29.4385C18.0675 26.468 18.0675 23.4975 18.0675 20.437Z" fill="#5C5C5C"/>
<path d="M155.265 37.5215C155.613 37.5169 155.96 37.5136 156.308 37.5114C156.426 37.5105 156.544 37.5092 156.661 37.5076C157.512 37.4964 158.225 37.5378 158.972 37.7856C159.516 38.116 159.592 38.5022 159.578 38.9319C159.542 39.3754 159.279 39.7705 158.73 40.0934C158.666 40.1314 158.666 40.1314 158.602 40.1703C158.211 40.3798 157.758 40.4673 157.245 40.5526C157.2 40.5608 157.154 40.569 157.107 40.5775C156.829 40.608 156.552 40.6041 156.269 40.603C156.207 40.603 156.146 40.6029 156.082 40.6028C155.885 40.6026 155.689 40.602 155.492 40.6014C155.358 40.6012 155.225 40.601 155.091 40.6008C154.764 40.6003 154.437 40.5995 154.11 40.5985C154.208 40.2208 154.326 39.8485 154.476 39.4762C154.513 39.384 154.549 39.2917 154.586 39.1994C154.603 39.1556 154.621 39.1118 154.639 39.0667C154.766 38.7496 154.89 38.4322 155.002 38.1135C155.013 38.0818 155.024 38.0501 155.036 38.0174C155.067 37.9285 155.098 37.8394 155.129 37.7504C155.182 37.6134 155.182 37.6134 155.265 37.5215Z" fill="#F9F9F9"/>
<path d="M141.982 37.5215C142.391 37.5215 142.799 37.5215 143.22 37.5215C143.247 38.2338 143.274 38.9461 143.302 39.68C143.493 39.4224 143.684 39.1647 143.88 38.8993C144.174 38.5232 144.174 38.5232 144.316 38.3433C144.532 38.0703 144.742 37.7958 144.952 37.5215C145.361 37.5215 145.769 37.5215 146.19 37.5215C146.244 38.2186 146.299 38.9158 146.355 39.6341C146.632 39.2529 146.632 39.2529 146.908 38.8717C147.139 38.5537 147.385 38.2412 147.65 37.9314C147.756 37.7983 147.84 37.6597 147.922 37.5215C148.331 37.5215 148.739 37.5215 149.16 37.5215C149.053 37.7008 148.955 37.853 148.809 38.0195C148.773 38.0611 148.737 38.1027 148.7 38.1455C148.661 38.1896 148.622 38.2338 148.582 38.2793C148.266 38.6436 147.958 39.0095 147.66 39.3786C147.326 39.7911 146.971 40.1955 146.602 40.5985C146.194 40.5985 145.786 40.5985 145.365 40.5985C145.311 39.9165 145.256 39.2345 145.2 38.5319C144.968 38.8156 144.737 39.0986 144.514 39.3844C144.197 39.79 143.874 40.1943 143.55 40.5985C143.142 40.5985 142.733 40.5985 142.312 40.5985C142.265 40.2563 142.218 39.914 142.171 39.5717C142.156 39.4555 142.14 39.3393 142.123 39.2231C142.1 39.0552 142.077 38.8873 142.055 38.7193C142.047 38.6682 142.04 38.617 142.033 38.5643C141.986 38.2158 141.976 37.871 141.982 37.5215Z" fill="#F8F8F8"/>
<path d="M166.732 37.5215C167.141 37.5215 167.549 37.5215 167.97 37.5215C168.294 37.9472 168.6 38.3739 168.871 38.8109C169.025 39.0578 169.192 39.301 169.372 39.5422C169.525 39.4151 169.568 39.3593 169.617 39.216C169.63 39.1783 169.643 39.1406 169.657 39.1018C169.67 39.0613 169.684 39.0208 169.698 38.9791C169.712 38.9375 169.727 38.8959 169.742 38.853C169.788 38.7202 169.833 38.5873 169.878 38.4544C169.909 38.3643 169.94 38.2742 169.971 38.1841C170.047 37.9633 170.122 37.7424 170.197 37.5215C170.579 37.5215 170.96 37.5215 171.352 37.5215C171.219 37.9979 171.043 38.468 170.863 38.9394C170.834 39.0156 170.805 39.0917 170.776 39.1678C170.706 39.3505 170.636 39.5331 170.567 39.7157C170.529 39.8141 170.492 39.9126 170.454 40.011C170.432 40.0686 170.411 40.1262 170.388 40.1855C170.369 40.2357 170.35 40.2858 170.33 40.3375C170.28 40.4607 170.28 40.4607 170.197 40.5985C169.789 40.5985 169.381 40.5985 168.96 40.5985C168.9 40.5137 168.84 40.4289 168.779 40.3414C168.174 39.4248 168.174 39.4248 167.475 38.5319C167.214 39.2194 166.964 39.9077 166.732 40.5985C166.324 40.5985 165.916 40.5985 165.495 40.5985C165.62 40.2719 165.744 39.9453 165.869 39.6187C165.928 39.467 165.986 39.3153 166.043 39.1636C166.11 38.9886 166.177 38.8136 166.244 38.6386C166.265 38.5849 166.285 38.5313 166.306 38.476C166.43 38.1544 166.572 37.838 166.732 37.5215Z" fill="#F9F9F9"/>
<path d="M149.82 37.5215C151.208 37.5215 152.597 37.5215 154.027 37.5215C153.973 37.7034 153.919 37.8852 153.862 38.0726C152.855 38.0726 151.848 38.0726 150.81 38.0726C150.783 38.1938 150.756 38.3151 150.727 38.44C150.7 38.5461 150.673 38.6522 150.645 38.7615C151.543 38.7615 152.442 38.7615 153.367 38.7615C153.313 38.9282 153.259 39.0949 153.202 39.2667C152.277 39.2667 151.351 39.2667 150.397 39.2667C150.316 39.5092 150.234 39.7516 150.15 40.0015C151.13 40.0015 152.11 40.0015 153.12 40.0015C153.037 40.4148 153.037 40.4148 152.955 40.5985C151.539 40.5985 150.124 40.5985 148.665 40.5985C148.719 40.447 148.774 40.2954 148.83 40.1393C148.866 40.0345 148.902 39.9298 148.937 39.825C149.2 39.0521 149.494 38.2871 149.82 37.5215Z" fill="#F9F9F9"/>
<path d="M161.37 37.5215C162.731 37.5215 164.093 37.5215 165.495 37.5215C165.413 38.0267 165.413 38.0267 165.33 38.0726C165.11 38.0767 164.892 38.0779 164.672 38.0771C164.606 38.077 164.541 38.077 164.473 38.0769C164.262 38.0766 164.051 38.076 163.84 38.0755C163.697 38.0752 163.554 38.075 163.412 38.0748C163.061 38.0743 162.711 38.0735 162.36 38.0726C162.349 38.1069 162.338 38.1413 162.327 38.1766C162.312 38.2219 162.298 38.2671 162.283 38.3137C162.261 38.3808 162.261 38.3808 162.239 38.4493C162.203 38.5541 162.159 38.658 162.113 38.7615C163.011 38.7615 163.909 38.7615 164.835 38.7615C164.753 39.1748 164.753 39.1748 164.67 39.2667C163.744 39.2667 162.819 39.2667 161.865 39.2667C161.838 39.4182 161.811 39.5698 161.783 39.7259C161.755 39.8017 161.728 39.8775 161.7 39.9556C162.68 39.9707 163.66 39.9859 164.67 40.0015C164.619 40.2008 164.564 40.3999 164.505 40.5985C163.089 40.5985 161.674 40.5985 160.215 40.5985C160.401 39.9783 160.401 39.9783 160.481 39.7629C160.499 39.7145 160.517 39.6661 160.535 39.6162C160.554 39.5661 160.572 39.516 160.592 39.4644C160.611 39.4113 160.631 39.3583 160.651 39.3037C160.693 39.1927 160.734 39.0818 160.776 38.9709C160.839 38.8006 160.903 38.6302 160.966 38.4597C161.006 38.3516 161.046 38.2435 161.087 38.1354C161.106 38.0843 161.125 38.0333 161.144 37.9807C161.162 37.9338 161.179 37.8868 161.197 37.8385C161.213 37.7971 161.228 37.7557 161.244 37.7131C161.288 37.6133 161.288 37.6133 161.37 37.5215Z" fill="#FAFAFA"/>
<path d="M138.997 37.4612C139.06 37.4599 139.124 37.4586 139.189 37.4572C139.713 37.454 140.146 37.5245 140.541 37.7225C140.904 37.9473 140.993 38.1436 140.993 38.44C140.611 38.44 140.23 38.44 139.838 38.44C139.783 38.3491 139.729 38.2582 139.673 38.1645C139.489 38.0581 139.386 38.03 139.123 38.01C139.046 38.0108 138.969 38.0116 138.889 38.0123C138.773 38.0126 138.773 38.0126 138.654 38.0129C138.43 38.027 138.293 38.0511 138.105 38.1185C137.985 38.2522 137.985 38.3381 138.023 38.486C138.364 38.6656 138.745 38.7089 139.193 38.7719C139.747 38.8566 140.213 38.9655 140.58 39.2208C140.745 39.4986 140.75 39.8375 140.544 40.1077C140.262 40.3806 139.705 40.5524 139.178 40.6445C138.254 40.6842 137.411 40.6903 136.666 40.3517C136.379 40.1992 136.219 40.0867 136.199 39.8598C136.197 39.7692 136.202 39.6787 136.208 39.5882C136.561 39.5882 136.915 39.5882 137.28 39.5882C137.316 39.6384 137.351 39.6886 137.388 39.7403C137.488 39.8677 137.565 39.9664 137.775 40.0474C138.221 40.1277 138.752 40.1389 139.178 40.0302C139.411 39.9246 139.422 39.8776 139.461 39.7087C139.458 39.5351 139.458 39.5351 139.216 39.4468C138.906 39.3512 138.62 39.2999 138.28 39.2495C137.777 39.1681 137.301 39.083 136.95 38.8534C136.736 38.6131 136.722 38.3816 136.785 38.1185C136.957 37.8545 137.262 37.7042 137.687 37.5633C138.107 37.4603 138.546 37.4643 138.997 37.4612Z" fill="#FAFAFA"/>
<path d="M185.238 19.1368C185.3 19.137 185.362 19.1373 185.425 19.1376C186.444 19.15 187.25 19.3697 187.997 19.7539C188.764 20.2019 189.047 20.7374 189.028 21.3412C188.944 21.9517 188.469 22.4069 187.687 22.8252C186.825 23.2193 185.814 23.3322 184.717 23.2845C184.029 23.2079 183.447 23.0723 182.902 22.8252C182.846 22.7999 182.789 22.7745 182.731 22.7484C182.085 22.4267 181.616 21.9351 181.563 21.4517C181.533 20.7748 181.739 20.2686 182.572 19.7482C183.328 19.3531 184.196 19.1322 185.238 19.1368ZM182.758 19.9722C182.111 20.418 181.927 20.9324 181.995 21.4934C182.143 21.9688 182.617 22.4412 183.315 22.7334C184.267 23.0413 185.219 23.1635 186.311 23.006C187.164 22.8377 187.803 22.4985 188.244 22.0674C188.62 21.6223 188.71 21.0891 188.43 20.6208C188.015 20.0726 187.462 19.664 186.45 19.4296C185.102 19.216 183.712 19.4022 182.758 19.9722Z" fill="#5C5C5C"/>
<path d="M156.255 38.0726C156.465 38.0676 156.674 38.064 156.884 38.0611C156.943 38.0596 157.002 38.058 157.062 38.0565C157.492 38.0521 157.734 38.0949 158.07 38.2563C158.335 38.4381 158.363 38.6117 158.359 38.839C158.358 38.8714 158.358 38.9039 158.358 38.9374C158.338 39.2603 158.176 39.5135 157.782 39.7555C157.297 39.998 156.848 40.0143 156.229 40.0072C156.16 40.0068 156.091 40.0064 156.02 40.006C155.851 40.0049 155.682 40.0032 155.513 40.0015C156.12 38.2988 156.12 38.2988 156.255 38.0726Z" fill="#030303"/>
<path d="M183.893 19.9778C186.321 19.9778 186.321 19.9778 186.811 20.2074C187.088 20.3972 187.068 20.6173 187.028 20.8504C186.834 21.1055 186.474 21.2385 186.038 21.3556C186.168 21.4723 186.299 21.589 186.429 21.7057C186.466 21.7385 186.503 21.7712 186.54 21.805C186.707 21.954 186.875 22.1018 187.055 22.2465C187.193 22.3659 187.193 22.3659 187.193 22.4578C186.964 22.4713 186.964 22.4713 186.698 22.4578C186.537 22.3672 186.537 22.3672 186.399 22.2416C186.349 22.1966 186.299 22.1517 186.247 22.1054C186.197 22.0578 186.146 22.0102 186.094 21.9612C186.042 21.9142 185.99 21.8671 185.936 21.8187C185.56 21.4762 185.56 21.4762 185.46 21.3096C185.106 21.3096 184.752 21.3096 184.388 21.3096C184.388 21.3887 184.389 21.4677 184.39 21.5491C184.391 21.652 184.392 21.755 184.393 21.8579C184.393 21.9101 184.394 21.9622 184.395 22.016C184.395 22.0656 184.395 22.1152 184.396 22.1663C184.396 22.2122 184.396 22.2581 184.397 22.3055C184.388 22.4119 184.388 22.4119 184.305 22.4578C184.169 22.4578 184.033 22.4578 183.893 22.4578C183.893 21.6394 183.893 20.821 183.893 19.9778ZM184.388 20.2074C184.388 20.4954 184.388 20.7833 184.388 21.08C184.652 21.085 184.917 21.0886 185.182 21.0915C185.256 21.093 185.331 21.0946 185.407 21.0962C185.891 21.1001 186.169 21.0802 186.533 20.8963C186.631 20.718 186.65 20.6218 186.522 20.4485C186.308 20.3052 186.118 20.2173 185.775 20.1964C185.564 20.1939 185.356 20.1954 185.145 20.1988C184.895 20.2016 184.645 20.2045 184.388 20.2074Z" fill="#5C5C5C"/>
</svg>
